<?xml version="1.0" standalone="no"?>
<!DOCTYPE svg PUBLIC "-//W3C//DTD SVG 20010904//EN"
 "http://www.w3.org/TR/2001/REC-SVG-20010904/DTD/svg10.dtd">
<svg version="1.0" xmlns="http://www.w3.org/2000/svg"
 width="700.000000pt" height="700.000000pt" viewBox="0 0 700.000000 700.000000"
 preserveAspectRatio="xMidYMid meet">
<metadata>
Created by potrace 1.11, written by Peter Selinger 2001-2013
</metadata>
<g transform="translate(0.000000,700.000000) scale(0.100000,-0.100000)"
fill="#000000" stroke="none">
<path d="M3159 6463 c-2 -77 0 -154 5 -161 2 -4 154 -7 338 -7 l333 0 5 65 c3
36 3 82 1 103 l-3 37 -339 0 -339 0 -1 -37z"/>
<path d="M3056 6258 c-149 -11 -264 -85 -283 -181 -12 -59 -7 -907 5 -938 26
-65 120 -135 202 -148 35 -6 35 -7 38 -64 l3 -57 479 0 480 0 0 62 c0 34 3 59
6 55 8 -8 102 21 133 41 48 31 80 64 97 101 16 32 17 80 18 461 1 234 -2 447
-6 473 -15 99 -125 181 -258 193 -96 8 -810 10 -914 2z m261 -524 c20 -20 24
-31 19 -57 -17 -86 -124 -89 -147 -4 -6 24 13 72 33 80 33 13 70 6 95 -19z
m438 1 c14 -13 25 -36 25 -50 0 -34 -42 -75 -76 -75 -39 0 -74 36 -74 76 0 68
77 98 125 49z m-448 -385 c42 -67 316 -62 356 6 10 18 47 18 47 1 0 -21 -52
-63 -95 -78 -54 -17 -61 -18 -130 -20 -69 -1 -104 6 -161 31 -42 19 -57 33
-67 63 -9 25 35 23 50 -3z"/>
<path d="M2734 4811 c-50 -30 -69 -90 -107 -326 -3 -16 -14 -82 -25 -145 -12
-63 -23 -131 -26 -150 -3 -19 -19 -116 -36 -215 -17 -99 -33 -193 -36 -210 -2
-16 -10 -57 -16 -90 -6 -33 -12 -69 -13 -80 -2 -11 -6 -33 -9 -50 -3 -16 -8
-50 -12 -75 -3 -25 -7 -52 -9 -60 -4 -15 -6 -24 -31 -170 -26 -148 -27 -163
-28 -260 l-1 -95 1115 0 1115 0 -1 95 c0 94 -4 127 -23 225 -5 28 -12 68 -15
90 -4 23 -9 52 -11 65 -5 23 -32 188 -40 235 -1 11 -6 36 -9 55 -6 31 -11 59
-30 175 -3 17 -8 41 -10 55 -3 14 -8 43 -11 65 -3 22 -14 90 -25 150 -11 61
-22 128 -25 150 -4 22 -8 51 -11 65 -3 14 -18 102 -34 197 -35 207 -38 219
-63 261 -38 64 -1 62 -809 61 -697 0 -735 -1 -764 -18z"/>
<path d="M2383 4635 c-32 -17 -78 -54 -118 -97 -59 -64 -81 -101 -224 -387
-147 -294 -202 -424 -215 -511 -3 -19 -8 -48 -11 -65 -14 -70 -54 -293 -60
-325 -3 -19 -8 -47 -11 -62 -5 -27 -5 -27 33 -16 36 10 196 6 253 -6 141 -30
184 -42 238 -67 34 -17 62 -35 62 -42 1 -34 21 30 35 113 9 52 18 106 20 120
3 14 10 54 15 90 19 114 20 124 35 201 8 42 17 98 20 125 4 27 11 68 16 92 5
23 12 59 15 80 2 20 9 60 14 87 12 61 21 113 25 140 5 40 15 101 20 125 3 14
7 41 10 60 2 19 9 60 15 90 6 30 13 71 16 90 6 38 10 64 18 95 2 12 6 36 8 55
l3 35 -90 3 c-80 2 -96 0 -142 -23z"/>
<path d="M4386 4651 c-4 -5 -4 -15 -2 -23 3 -7 7 -26 10 -43 3 -16 21 -124 41
-240 19 -115 38 -223 41 -240 3 -16 7 -43 10 -60 3 -16 16 -95 30 -175 25
-153 26 -157 45 -260 6 -36 13 -76 15 -90 12 -95 77 -446 84 -459 5 -9 10 -11
10 -5 0 25 162 87 280 108 74 13 236 18 273 8 20 -6 37 -9 37 -7 0 35 -106
560 -123 610 -34 97 -311 648 -359 713 -53 72 -103 117 -162 147 -42 21 -64
25 -137 25 -48 0 -90 -4 -93 -9z"/>
<path d="M1843 3131 c-26 -12 -33 -33 -48 -151 -4 -25 -8 -59 -11 -76 l-5 -31
52 16 c68 23 171 19 244 -9 15 -6 46 -24 70 -40 l44 -30 5 32 c3 18 13 74 21
123 8 50 15 93 15 97 0 41 -319 98 -387 69z"/>
<path d="M4955 3129 c-106 -19 -171 -43 -179 -66 -4 -9 -1 -43 5 -77 6 -33 12
-70 14 -81 1 -11 6 -37 10 -57 l7 -37 51 33 c29 18 68 38 88 45 55 18 149 20
208 5 30 -8 56 -13 58 -11 2 2 -3 42 -11 88 -8 46 -17 97 -19 113 -2 16 -11
34 -21 41 -19 14 -143 17 -211 4z"/>
<path d="M1840 2854 c-81 -22 -122 -45 -177 -100 -74 -74 -105 -145 -109 -252
-3 -65 1 -95 18 -140 35 -98 81 -128 114 -77 13 21 17 48 15 127 0 56 4 119
10 142 44 163 263 214 381 89 70 -73 78 -166 24 -291 -48 -113 -52 -158 -12
-168 31 -7 60 8 100 54 119 135 132 316 33 461 -87 129 -254 194 -397 155z"/>
<path d="M4997 2858 c-272 -58 -392 -386 -220 -599 47 -58 86 -83 119 -75 39
10 35 61 -12 169 -42 96 -47 139 -24 207 38 113 154 176 270 146 67 -17 114
-56 144 -119 24 -48 26 -62 24 -164 -2 -90 1 -115 15 -137 34 -51 72 -27 112
70 42 103 28 236 -36 335 -83 130 -245 199 -392 167z"/>
<path d="M2540 2840 l-75 -5 0 -127 0 -127 430 0 c237 0 442 0 458 0 l27 -1 0
-460 0 -460 113 0 113 0 0 460 -1 460 75 0 c41 1 250 2 465 3 l389 2 1 124 c0
80 -4 125 -11 128 -16 6 -1895 9 -1984 3z"/>
<path d="M2459 2513 c0 -16 -2 -66 -4 -113 -2 -47 -6 -154 -10 -239 -3 -85 -8
-186 -10 -225 -2 -39 -7 -147 -10 -241 -4 -93 -8 -201 -10 -240 -1 -38 -6
-144 -10 -235 -4 -91 -9 -168 -11 -172 -9 -14 46 -16 491 -15 l460 2 0 750 0
750 -442 3 -443 2 -1 -27z"/>
<path d="M3650 1787 l0 -754 474 0 474 0 -4 86 c-3 90 -12 290 -19 451 -3 52
-7 158 -10 235 -3 77 -7 183 -10 235 -5 125 -17 393 -19 450 l-1 45 -443 3
-442 2 0 -753z"/>
<path d="M2399 967 c-1 -15 -1 -449 0 -460 1 -4 214 -6 474 -5 l472 3 0 235 0
235 -472 2 c-359 1 -473 -1 -474 -10z"/>
<path d="M3650 739 l0 -239 474 0 473 0 0 239 0 240 -474 0 -473 0 0 -240z"/>
</g>
</svg>
