<svg xmlns="http://www.w3.org/2000/svg" xmlns:xlink="http://www.w3.org/1999/xlink" viewBox="0 0 208.12 63.76"><defs><style>.cls-1{fill:#231f20;}.cls-2{fill:#fff;stroke:#fff;stroke-miterlimit:10;stroke-width:0.2px;}.cls-3{fill:url(#linear-gradient);}.cls-4{fill:url(#linear-gradient-2);}.cls-5{fill:url(#linear-gradient-3);}.cls-6{fill:url(#linear-gradient-4);}.cls-7{fill:url(#linear-gradient-5);}.cls-8{fill:url(#linear-gradient-6);}</style><linearGradient id="linear-gradient" x1="1190.03" y1="2087.08" x2="1203.37" y2="2087.08" gradientTransform="translate(2289.13 -1190.03) rotate(90)" gradientUnits="userSpaceOnUse"><stop offset="0" stop-color="#ffd300"/><stop offset="1" stop-color="#ec1c4e"/></linearGradient><linearGradient id="linear-gradient-2" x1="1190.03" y1="2096.36" x2="1203.37" y2="2096.36" xlink:href="#linear-gradient"/><linearGradient id="linear-gradient-3" x1="1190.03" y1="2104.34" x2="1203.37" y2="2104.34" xlink:href="#linear-gradient"/><linearGradient id="linear-gradient-4" x1="2745.37" y1="-936.9" x2="2758.71" y2="-936.9" gradientTransform="translate(942.96 2809.13) rotate(-90)" xlink:href="#linear-gradient"/><linearGradient id="linear-gradient-5" x1="2745.37" y1="-927.62" x2="2758.71" y2="-927.62" gradientTransform="translate(942.96 2809.13) rotate(-90)" xlink:href="#linear-gradient"/><linearGradient id="linear-gradient-6" x1="2745.37" y1="-919.63" x2="2758.71" y2="-919.63" gradientTransform="translate(942.96 2809.13) rotate(-90)" xlink:href="#linear-gradient"/></defs><title>Asset 2</title><g id="Layer_2" data-name="Layer 2"><g id="Layer_1-2" data-name="Layer 1"><rect class="cls-1" width="208.12" height="63.58"/><path class="cls-2" d="M19.48,32.3a.37.37,0,1,1,0-.73.37.37,0,0,1,0,.73Zm0-2.29a.32.32,0,0,1,.37.36.37.37,0,1,1-.73,0A.32.32,0,0,1,19.51,30Zm.08,3.81a.36.36,0,1,1,0-.72.36.36,0,0,1,0,.72Zm.14-5.3a.36.36,0,1,1,0,.72.36.36,0,0,1,0-.72Zm.18,6.8a.33.33,0,0,1-.36-.37.37.37,0,0,1,.73,0A.33.33,0,0,1,19.91,35.32Zm.22-8.26a.33.33,0,0,1,.37.37.33.33,0,0,1-.37.36.32.32,0,0,1-.36-.36A.33.33,0,0,1,20.13,27.06Zm.26,9.78a.36.36,0,1,1,0-.72.36.36,0,1,1,0,.72Zm.29-11.23a.37.37,0,0,1,0,.73.37.37,0,1,1,0-.73ZM21,38.19a.37.37,0,1,1,.36-.37A.32.32,0,0,1,21,38.19ZM21.4,24.3a.37.37,0,1,1,0,.73.37.37,0,0,1,0-.73Zm.3,15.12a.36.36,0,1,1,.36-.36A.32.32,0,0,1,21.7,39.42Zm.58-16.35a.36.36,0,0,1,0,.72.36.36,0,1,1,0-.72Zm.4,17.55a.33.33,0,0,1-.37-.36.33.33,0,0,1,.37-.37.33.33,0,0,1,.36.37A.32.32,0,0,1,22.68,40.62Zm.69-18.79a.37.37,0,0,1,0,.73.37.37,0,1,1,0-.73Zm.36,19.85a.37.37,0,1,1,.36-.37A.32.32,0,0,1,23.73,41.68Zm.84-20.87a.37.37,0,0,1,0,.73.37.37,0,1,1,0-.73Zm.36,21.81a.32.32,0,0,1-.36-.36.36.36,0,1,1,.72,0A.32.32,0,0,1,24.93,42.62Zm1-22.64a.36.36,0,1,1,0,.72.36.36,0,0,1,0-.72Zm.26,23.48a.37.37,0,1,1,0-.73.37.37,0,0,1,0,.73Zm1.12-24.07a.33.33,0,0,1,.37.37.37.37,0,0,1-.73,0A.33.33,0,0,1,27.29,19.39Zm.29,24.76a.37.37,0,1,1,.37-.37A.32.32,0,0,1,27.58,44.15ZM28.78,19a.32.32,0,0,1,.37.36.37.37,0,1,1-.73,0A.32.32,0,0,1,28.78,19ZM29,44.62a.32.32,0,0,1-.36-.36.36.36,0,1,1,.72,0A.32.32,0,0,1,29,44.62Zm1.2-25.88a.37.37,0,0,1,0,.73.37.37,0,1,1,0-.73Zm.33,26.1a.37.37,0,1,1,.36-.36A.32.32,0,0,1,30.57,44.84Zm1.16-26.1a.37.37,0,1,1-.36.36A.32.32,0,0,1,31.73,18.74Zm.36,26.06a.36.36,0,1,1,0-.72.36.36,0,1,1,0,.72Zm1.09-25.88a.37.37,0,1,1,0,.73.37.37,0,0,1,0-.73Zm.44,25.66a.36.36,0,1,1,.36-.36A.32.32,0,0,1,33.62,44.58Zm1-25.22a.36.36,0,1,1-.36.36A.32.32,0,0,1,34.6,19.36Zm.51,24.79a.37.37,0,1,1,.36-.37A.32.32,0,0,1,35.11,44.15ZM36,19.94a.37.37,0,1,1,0,.73.37.37,0,0,1,0-.73Zm.55,23.59a.37.37,0,1,1,.36-.36A.32.32,0,0,1,36.53,43.53Zm.8-22.83a.37.37,0,1,1-.37.37A.32.32,0,0,1,37.33,20.7Zm.47,22a.37.37,0,1,1,0-.73.37.37,0,0,1,0,.73Zm.65-21a.37.37,0,1,1-.36.36A.32.32,0,0,1,38.45,21.72Zm.47,20a.36.36,0,1,1,.37-.36A.32.32,0,0,1,38.92,41.71Zm.51-18.83a.33.33,0,0,1,.37.37.37.37,0,0,1-.73,0A.33.33,0,0,1,39.43,22.88Zm.48,17.78a.37.37,0,1,1,0-.73.37.37,0,0,1,0,.73Zm.32-16.54a.37.37,0,1,1-.36.36A.32.32,0,0,1,40.23,24.12Zm.51,15.27a.37.37,0,0,1,0-.73.37.37,0,1,1,0,.73Z"/><path class="cls-2" d="M44.23,19.54a.37.37,0,0,1,0-.73.37.37,0,1,1,0,.73ZM45,20.7a.36.36,0,1,1,.36-.36A.32.32,0,0,1,45,20.7Zm.8,1.17a.37.37,0,1,1,.36-.37A.32.32,0,0,1,45.76,21.87ZM46.52,23a.37.37,0,0,1,0-.73.37.37,0,1,1,0,.73Zm.77,1.16a.36.36,0,1,1,.36-.36A.32.32,0,0,1,47.29,24.19ZM48,25.36a.33.33,0,0,1-.36-.37.32.32,0,0,1,.36-.36.33.33,0,0,1,.37.36A.33.33,0,0,1,48,25.36Zm.77,1.16a.37.37,0,1,1,0-.73.37.37,0,0,1,0,.73Zm.76,1.16a.32.32,0,0,1-.36-.36.36.36,0,1,1,.72,0A.32.32,0,0,1,49.54,27.68Zm.8,1.16a.36.36,0,1,1,.36-.36A.32.32,0,0,1,50.34,28.84ZM51.07,30a.37.37,0,1,1,0-.73.37.37,0,0,1,0,.73Zm.72,1.16a.32.32,0,0,1-.36-.36.37.37,0,1,1,.73,0A.32.32,0,0,1,51.79,31.17Zm.8,1.16a.36.36,0,0,1,0-.72.36.36,0,1,1,0,.72Zm.77,1.17a.37.37,0,1,1,0-.73.37.37,0,0,1,0,.73Zm.83,1.09a.37.37,0,0,1,0-.73.37.37,0,1,1,0,.73Zm0,1.42a.37.37,0,0,1,0-.73.37.37,0,1,1,0,.73Zm0,1.38a.37.37,0,0,1,0-.73.37.37,0,1,1,0,.73Zm0,1.45a.32.32,0,0,1-.36-.36.33.33,0,0,1,.36-.37.33.33,0,0,1,.37.37A.33.33,0,0,1,54.19,38.84Zm0,1.49a.32.32,0,0,1-.36-.36.33.33,0,0,1,.36-.37.33.33,0,0,1,.37.37A.33.33,0,0,1,54.19,40.33Zm0,1.49a.32.32,0,0,1-.36-.36.33.33,0,0,1,.36-.37.33.33,0,0,1,.37.37A.33.33,0,0,1,54.19,41.82Zm0,1.46a.33.33,0,0,1-.36-.37.32.32,0,0,1,.36-.36.33.33,0,0,1,.37.36A.33.33,0,0,1,54.19,43.28Zm0,1.45a.37.37,0,0,1,0-.73.37.37,0,1,1,0,.73ZM55,33.5a.37.37,0,1,1,0-.73.37.37,0,0,1,0,.73Zm.76-1.17a.36.36,0,1,1,0-.72.36.36,0,1,1,0,.72Zm.8-1.16a.32.32,0,0,1-.36-.36.33.33,0,0,1,.36-.37.33.33,0,0,1,.37.37A.33.33,0,0,1,56.59,31.17ZM57.32,30a.37.37,0,1,1,.36-.37A.32.32,0,0,1,57.32,30Zm.73-1.17a.36.36,0,1,1,.36-.36A.32.32,0,0,1,58.05,28.84Zm.8-1.16a.32.32,0,0,1-.37-.36.37.37,0,1,1,.73,0A.32.32,0,0,1,58.85,27.68Zm.76-1.16a.37.37,0,1,1,.36-.37A.32.32,0,0,1,59.61,26.52Zm.76-1.16A.33.33,0,0,1,60,25a.32.32,0,0,1,.36-.36.33.33,0,0,1,.37.36A.33.33,0,0,1,60.37,25.36Zm.73-1.17a.36.36,0,1,1,.36-.36A.32.32,0,0,1,61.1,24.19ZM61.86,23a.37.37,0,0,1,0-.73.37.37,0,1,1,0,.73Zm.77-1.16a.37.37,0,1,1,0-.73.37.37,0,0,1,0,.73Zm.8-1.17a.36.36,0,1,1,.36-.36A.32.32,0,0,1,63.43,20.7Zm.72-1.16a.37.37,0,0,1,0-.73.37.37,0,1,1,0,.73Z"/><path class="cls-2" d="M70.37,19.9a.36.36,0,1,1,0-.72.36.36,0,0,1,0,.72Zm0,1.46a.37.37,0,1,1,0-.73.37.37,0,0,1,0,.73Zm0,1.38a.37.37,0,1,1,0-.73.37.37,0,0,1,0,.73Zm0,1.31a.37.37,0,1,1,0-.73.37.37,0,0,1,0,.73Zm0,1.45a.33.33,0,0,1-.37-.36.33.33,0,0,1,.37-.37.33.33,0,0,1,.36.37A.32.32,0,0,1,70.37,25.5Zm0,1.42a.37.37,0,1,1,0-.73.37.37,0,0,1,0,.73Zm0,1.56a.33.33,0,0,1-.37-.36.33.33,0,0,1,.37-.37.33.33,0,0,1,.36.37A.32.32,0,0,1,70.37,28.48Zm0,1.46a.33.33,0,0,1-.37-.37.33.33,0,0,1,.37-.36.32.32,0,0,1,.36.36A.33.33,0,0,1,70.37,29.94Zm0,1.45a.37.37,0,1,1,0-.73.37.37,0,0,1,0,.73Zm0,1.34a.36.36,0,1,1,0-.72.36.36,0,0,1,0,.72Zm0,1.46a.37.37,0,1,1,0-.73.37.37,0,0,1,0,.73Zm0,1.45a.36.36,0,1,1,0-.72.36.36,0,0,1,0,.72Zm0,1.42a.37.37,0,1,1,0-.73.37.37,0,0,1,0,.73Zm0,1.49a.37.37,0,1,1,0-.73.37.37,0,0,1,0,.73Zm0,1.49a.37.37,0,1,1,0-.73.37.37,0,0,1,0,.73Zm0,1.49a.33.33,0,0,1-.37-.36.33.33,0,0,1,.37-.37.33.33,0,0,1,.36.37A.32.32,0,0,1,70.37,41.53Zm0,1.45a.36.36,0,1,1,0-.72.36.36,0,0,1,0,.72Zm0,1.46a.37.37,0,1,1,0-.73.37.37,0,0,1,0,.73Zm.94-23.85a.36.36,0,0,1,0-.72.36.36,0,1,1,0,.72Zm.87,1.09a.36.36,0,1,1,.37-.36A.32.32,0,0,1,72.18,21.68Zm.88,1.09a.36.36,0,1,1,.36-.36A.32.32,0,0,1,73.06,22.77Zm.87,1.1a.33.33,0,0,1-.36-.37.36.36,0,0,1,.72,0A.33.33,0,0,1,73.93,23.87ZM74.8,25a.37.37,0,0,1,0-.73.37.37,0,1,1,0,.73Zm.87,1.09a.33.33,0,0,1-.36-.37.37.37,0,0,1,.73,0A.33.33,0,0,1,75.67,26.05Zm.88,1.09a.37.37,0,1,1,0-.73.37.37,0,0,1,0,.73Zm.87,1.09a.37.37,0,1,1,.36-.37A.32.32,0,0,1,77.42,28.23Zm.87,1.09a.37.37,0,0,1,0-.73.37.37,0,1,1,0,.73Zm.87,1.09a.37.37,0,1,1,.37-.37A.32.32,0,0,1,79.16,30.41ZM80,31.5a.37.37,0,1,1,0-.73.37.37,0,0,1,0,.73Zm.87,1.09a.37.37,0,1,1,0-.73.37.37,0,0,1,0,.73Zm.87,1.09a.37.37,0,1,1,.36-.36A.32.32,0,0,1,81.78,33.68Zm.87,1.09a.37.37,0,0,1,0-.73.37.37,0,1,1,0,.73Zm.87,1.09a.32.32,0,0,1-.36-.36.37.37,0,1,1,.73,0A.32.32,0,0,1,83.52,35.86ZM84.4,37a.33.33,0,0,1-.37-.36.33.33,0,0,1,.37-.37.33.33,0,0,1,.36.37A.32.32,0,0,1,84.4,37ZM85.27,38a.32.32,0,0,1-.36-.36.36.36,0,1,1,.72,0A.32.32,0,0,1,85.27,38Zm.87,1.09a.32.32,0,0,1-.36-.36.33.33,0,0,1,.36-.37.33.33,0,0,1,.37.37A.33.33,0,0,1,86.14,39.13ZM87,40.22a.36.36,0,1,1,.37-.36A.32.32,0,0,1,87,40.22Zm.88,1.09a.36.36,0,1,1,0-.72.36.36,0,0,1,0,.72Zm.87,1.09a.36.36,0,1,1,.36-.36A.32.32,0,0,1,88.76,42.4Zm.87,1.09a.36.36,0,0,1,0-.72.36.36,0,1,1,0,.72ZM90.5,19.9a.36.36,0,1,1,.37-.36A.32.32,0,0,1,90.5,19.9Zm0,1.46a.37.37,0,1,1,.37-.37A.32.32,0,0,1,90.5,21.36Zm0,1.38a.37.37,0,0,1,0-.73.37.37,0,1,1,0,.73Zm0,1.31a.37.37,0,1,1,.37-.37A.32.32,0,0,1,90.5,24.05Zm0,1.45a.32.32,0,0,1-.36-.36.37.37,0,1,1,.73,0A.32.32,0,0,1,90.5,25.5Zm0,1.42a.37.37,0,1,1,.37-.37A.32.32,0,0,1,90.5,26.92Zm0,1.56a.32.32,0,0,1-.36-.36.37.37,0,1,1,.73,0A.32.32,0,0,1,90.5,28.48Zm0,1.46a.33.33,0,0,1-.36-.37.37.37,0,0,1,.73,0A.33.33,0,0,1,90.5,29.94Zm0,1.45a.37.37,0,0,1,0-.73.37.37,0,1,1,0,.73Zm0,1.34a.36.36,0,1,1,.37-.36A.32.32,0,0,1,90.5,32.73Zm0,1.46a.37.37,0,1,1,.37-.37A.32.32,0,0,1,90.5,34.19Zm0,1.45a.36.36,0,1,1,.37-.36A.32.32,0,0,1,90.5,35.64Zm0,1.42a.37.37,0,0,1,0-.73.37.37,0,1,1,0,.73Zm0,1.49a.37.37,0,0,1,0-.73.37.37,0,1,1,0,.73Zm0,1.49a.37.37,0,0,1,0-.73.37.37,0,1,1,0,.73Zm0,1.49a.32.32,0,0,1-.36-.36.37.37,0,1,1,.73,0A.32.32,0,0,1,90.5,41.53Zm0,1.45a.36.36,0,1,1,.37-.36A.32.32,0,0,1,90.5,43Zm0,1.46a.37.37,0,0,1,0-.73.37.37,0,1,1,0,.73Z"/><path class="cls-2" d="M99.59,19.9a.36.36,0,0,1,0-.72.36.36,0,1,1,0,.72Zm0,1.35a.37.37,0,0,1,0-.73.37.37,0,1,1,0,.73Zm0,1.38a.37.37,0,0,1,0-.73.37.37,0,1,1,0,.73Zm0,1.31a.37.37,0,0,1,0-.73.37.37,0,1,1,0,.73Zm0,1.45a.36.36,0,0,1,0-.72.36.36,0,1,1,0,.72Zm0,1.42a.37.37,0,0,1,0-.73.37.37,0,1,1,0,.73Zm0,1.56a.36.36,0,0,1,0-.72.36.36,0,1,1,0,.72Zm0,1.46a.37.37,0,0,1,0-.73.37.37,0,1,1,0,.73Zm0,1.45a.32.32,0,0,1-.36-.36.33.33,0,0,1,.36-.37.33.33,0,0,1,.37.37A.33.33,0,0,1,99.59,31.28Zm0,1.35a.33.33,0,0,1-.36-.37.32.32,0,0,1,.36-.36.33.33,0,0,1,.37.36A.33.33,0,0,1,99.59,32.63Zm0,1.45a.37.37,0,0,1,0-.73.37.37,0,1,1,0,.73Zm0,1.45a.36.36,0,1,1,0-.72.36.36,0,1,1,0,.72Zm0,1.42a.32.32,0,0,1-.36-.36.33.33,0,0,1,.36-.37.33.33,0,0,1,.37.37A.33.33,0,0,1,99.59,37Zm0,1.49a.32.32,0,0,1-.36-.36.33.33,0,0,1,.36-.37.33.33,0,0,1,.37.37A.33.33,0,0,1,99.59,38.44Zm0,1.49a.32.32,0,0,1-.36-.36.33.33,0,0,1,.36-.37.33.33,0,0,1,.37.37A.33.33,0,0,1,99.59,39.93Zm0,1.49a.32.32,0,0,1-.36-.36.33.33,0,0,1,.36-.37.33.33,0,0,1,.37.37A.33.33,0,0,1,99.59,41.42Zm0,1.46a.33.33,0,0,1-.36-.37.32.32,0,0,1,.36-.36.33.33,0,0,1,.37.36A.33.33,0,0,1,99.59,42.88Zm0,1.45a.37.37,0,0,1,0-.73.37.37,0,1,1,0,.73Zm1.2-12.43a.37.37,0,0,1,0-.73.37.37,0,1,1,0,.73Zm.07,12.47a.37.37,0,1,1,.37-.37A.32.32,0,0,1,100.86,44.37Zm.08-24.5a.37.37,0,1,1,0-.73.37.37,0,0,1,0,.73Zm1.12,12a.37.37,0,1,1,.37-.37A.32.32,0,0,1,102.06,31.9Zm.08,12.47a.37.37,0,1,1,0-.73.37.37,0,0,1,0,.73Zm.07-24.5a.37.37,0,1,1,0-.73.37.37,0,0,1,0,.73Zm1.12,12a.37.37,0,1,1,.37-.37A.32.32,0,0,1,103.33,31.9Zm.08,12.47a.37.37,0,1,1,0-.73.37.37,0,0,1,0,.73Zm.07-24.5a.37.37,0,1,1,.36-.37A.32.32,0,0,1,103.48,19.87Zm1.16,12a.37.37,0,1,1,.37-.37A.32.32,0,0,1,104.64,31.9Zm.08,12.47a.37.37,0,1,1,0-.73.37.37,0,0,1,0,.73Zm.07-24.5a.37.37,0,1,1,.36-.37A.32.32,0,0,1,104.79,19.87Zm1.16,12a.37.37,0,0,1,0-.73.37.37,0,1,1,0,.73ZM106,44.37a.37.37,0,1,1,.37-.37A.32.32,0,0,1,106,44.37Zm.08-24.5a.37.37,0,1,1,0-.73.37.37,0,0,1,0,.73Zm1.12,12a.37.37,0,1,1,.37-.37A.32.32,0,0,1,107.22,31.9Zm.08,12.47a.37.37,0,1,1,0-.73.37.37,0,0,1,0,.73Zm.07-24.5a.37.37,0,1,1,.36-.37A.32.32,0,0,1,107.37,19.87Zm1.13,12a.37.37,0,1,1,0-.73.37.37,0,0,1,0,.73Zm.07,12.47a.37.37,0,1,1,.36-.37A.32.32,0,0,1,108.57,44.37Zm.07-24.5a.37.37,0,0,1,0-.73.37.37,0,1,1,0,.73Zm1.17,12a.37.37,0,1,1,0-.73.37.37,0,0,1,0,.73Zm.07,12.47a.37.37,0,1,1,0-.73.37.37,0,0,1,0,.73Zm.07-24.5a.37.37,0,1,1,.36-.37A.32.32,0,0,1,110,19.87Zm1.13,12a.37.37,0,1,1,0-.73.37.37,0,0,1,0,.73Zm.07,12.47a.37.37,0,1,1,.36-.37A.32.32,0,0,1,111.15,44.37Zm.07-24.5a.37.37,0,0,1,0-.73.37.37,0,1,1,0,.73Zm1.17,12a.37.37,0,1,1,0-.73.37.37,0,0,1,0,.73Zm.07,12.47a.37.37,0,1,1,.36-.37A.32.32,0,0,1,112.46,44.37Zm.07-24.5a.37.37,0,0,1,0-.73.37.37,0,1,1,0,.73Zm1.17,12a.37.37,0,1,1,0-.73.37.37,0,0,1,0,.73Zm.07,12.47a.37.37,0,1,1,0-.73.37.37,0,0,1,0,.73Zm.07-24.5a.37.37,0,1,1,.36-.37A.32.32,0,0,1,113.84,19.87Zm1.2,24.5a.37.37,0,1,1,.36-.37A.32.32,0,0,1,115,44.37Zm.07-24.5a.37.37,0,0,1,0-.73.37.37,0,1,1,0,.73Z"/><path class="cls-2" d="M122.74,19.9a.36.36,0,1,1,.37-.36A.32.32,0,0,1,122.74,19.9Zm0,1.35a.37.37,0,1,1,.37-.37A.32.32,0,0,1,122.74,21.25Zm0,1.38a.37.37,0,0,1,0-.73.37.37,0,1,1,0,.73Zm0,1.31a.37.37,0,1,1,.37-.37A.32.32,0,0,1,122.74,23.94Zm0,1.45a.36.36,0,1,1,.37-.36A.32.32,0,0,1,122.74,25.39Zm0,1.42a.37.37,0,0,1,0-.73.37.37,0,1,1,0,.73Zm0,1.56a.36.36,0,1,1,.37-.36A.32.32,0,0,1,122.74,28.37Zm0,1.46a.37.37,0,1,1,.37-.37A.32.32,0,0,1,122.74,29.83Zm0,1.45a.32.32,0,0,1-.36-.36.37.37,0,1,1,.73,0A.32.32,0,0,1,122.74,31.28Zm0,1.35a.33.33,0,0,1-.36-.37.37.37,0,0,1,.73,0A.33.33,0,0,1,122.74,32.63Zm0,1.45a.37.37,0,0,1,0-.73.37.37,0,1,1,0,.73Zm0,1.45a.36.36,0,1,1,.37-.36A.32.32,0,0,1,122.74,35.53Zm0,1.42a.32.32,0,0,1-.36-.36.37.37,0,1,1,.73,0A.32.32,0,0,1,122.74,37Zm0,1.49a.32.32,0,0,1-.36-.36.37.37,0,1,1,.73,0A.32.32,0,0,1,122.74,38.44Zm0,1.49a.32.32,0,0,1-.36-.36.37.37,0,1,1,.73,0A.32.32,0,0,1,122.74,39.93Zm0,1.49a.32.32,0,0,1-.36-.36.37.37,0,1,1,.73,0A.32.32,0,0,1,122.74,41.42Zm0,1.46a.33.33,0,0,1-.36-.37.37.37,0,0,1,.73,0A.33.33,0,0,1,122.74,42.88Zm0,1.45a.37.37,0,0,1,0-.73.37.37,0,1,1,0,.73Zm1.2-24.54a.36.36,0,1,1,.37-.36A.32.32,0,0,1,123.94,19.79Zm0,14.62a.37.37,0,1,1,.37-.37A.32.32,0,0,1,123.94,34.41Zm1.28-14.62a.36.36,0,1,1,0-.72.36.36,0,0,1,0,.72Zm0,14.62a.37.37,0,1,1,0-.73.37.37,0,0,1,0,.73Zm1.27-14.62a.36.36,0,1,1,.36-.36A.32.32,0,0,1,126.49,19.79Zm0,14.62a.37.37,0,1,1,.36-.37A.32.32,0,0,1,126.49,34.41Zm1.27-14.62a.36.36,0,1,1,.36-.36A.32.32,0,0,1,127.76,19.79Zm0,14.62a.37.37,0,1,1,.36-.37A.32.32,0,0,1,127.76,34.41ZM129,19.76a.37.37,0,1,1,.37-.37A.32.32,0,0,1,129,19.76Zm0,14.65a.37.37,0,1,1,.37-.37A.32.32,0,0,1,129,34.41Zm1.28-14.65a.37.37,0,1,1,0-.73.37.37,0,0,1,0,.73Zm0,14.65a.37.37,0,1,1,0-.73.37.37,0,0,1,0,.73Zm1.27-14.65a.37.37,0,1,1,0-.73.37.37,0,0,1,0,.73Zm0,14.65A.37.37,0,1,1,132,34,.32.32,0,0,1,131.61,34.41Zm1.24-14.62a.36.36,0,1,1,.36-.36A.32.32,0,0,1,132.85,19.79Zm.07,14.62a.37.37,0,1,1,.37-.37A.32.32,0,0,1,132.92,34.41Zm.37,1.12a.36.36,0,1,1,0-.72.36.36,0,1,1,0,.72Zm.83-15.59a.37.37,0,0,1,0-.73.37.37,0,1,1,0,.73Zm0,16.68a.36.36,0,0,1,0-.72.36.36,0,1,1,0,.72Zm.08-2.32a.37.37,0,1,1,0-.73.37.37,0,0,1,0,.73Zm.65,3.49a.37.37,0,1,1,.36-.37A.32.32,0,0,1,134.85,37.79Zm.47-17.45a.37.37,0,0,1,0-.73.37.37,0,1,1,0,.73Zm.08,12.83a.37.37,0,0,1,0,.73.37.37,0,1,1,0-.73Zm.25,5.78a.37.37,0,1,1,.36-.36A.32.32,0,0,1,135.65,39Zm.73,1.16a.36.36,0,1,1,.36-.36A.32.32,0,0,1,136.38,40.11Zm0-19.84a.36.36,0,1,1,0,.72.36.36,0,1,1,0-.72Zm.11,12.21a.37.37,0,1,1,0,.73.37.37,0,0,1,0-.73Zm.62,8.8a.37.37,0,1,1,.36-.37A.32.32,0,0,1,137.14,41.28Zm.29-20.1a.36.36,0,1,1-.36.36A.32.32,0,0,1,137.43,21.18Zm0,10.43a.36.36,0,1,1-.37.36A.32.32,0,0,1,137.47,31.61Zm.43,10.83a.37.37,0,0,1,0-.73.37.37,0,1,1,0,.73Zm.33-20.14a.37.37,0,1,1-.36.37A.32.32,0,0,1,138.23,22.3Zm.07,8.22a.36.36,0,1,1-.36.36A.32.32,0,0,1,138.3,30.52Zm.33,13.08a.36.36,0,1,1,.36-.36A.32.32,0,0,1,138.63,43.6Zm.26-20a.33.33,0,0,1,.36.37.37.37,0,0,1-.73,0A.33.33,0,0,1,138.89,23.57Zm0,5.67a.33.33,0,0,1,.36.37.37.37,0,0,1-.73,0A.33.33,0,0,1,138.89,29.24Zm.36-4.28a.36.36,0,1,1-.36.36A.32.32,0,0,1,139.25,25Zm0,2.9a.33.33,0,0,1,.36.37.36.36,0,1,1-.72,0A.33.33,0,0,1,139.25,27.86Zm.18-1.45a.37.37,0,1,1-.36.36A.32.32,0,0,1,139.43,26.41Zm0,18.36a.33.33,0,0,1-.36-.37.36.36,0,1,1,.72,0A.33.33,0,0,1,139.43,44.77Z"/><path class="cls-2" d="M145.17,32.3a.37.37,0,0,1,0-.73.37.37,0,1,1,0,.73Zm0-2.29a.32.32,0,0,1,.36.36.36.36,0,1,1-.72,0A.32.32,0,0,1,145.21,30Zm.07,3.81a.36.36,0,1,1,.36-.36A.32.32,0,0,1,145.28,33.82Zm.15-5.3a.36.36,0,1,1-.37.36A.32.32,0,0,1,145.43,28.52Zm.18,6.8a.33.33,0,0,1-.37-.37.33.33,0,0,1,.37-.36A.32.32,0,0,1,146,35,.33.33,0,0,1,145.61,35.32Zm.22-8.26a.33.33,0,0,1,.36.37.37.37,0,0,1-.73,0A.33.33,0,0,1,145.83,27.06Zm.25,9.78a.36.36,0,1,1,.36-.36A.32.32,0,0,1,146.08,36.84Zm.29-11.23a.37.37,0,1,1,0,.73.37.37,0,0,1,0-.73Zm.37,12.58a.37.37,0,1,1,0-.73.37.37,0,0,1,0,.73Zm.36-13.89a.37.37,0,1,1-.36.37A.32.32,0,0,1,147.1,24.3Zm.29,15.12a.36.36,0,1,1,.36-.36A.32.32,0,0,1,147.39,39.42ZM148,23.07a.36.36,0,1,1-.36.36A.32.32,0,0,1,148,23.07Zm.4,17.55a.32.32,0,0,1-.36-.36.36.36,0,1,1,.72,0A.32.32,0,0,1,148.37,40.62Zm.69-18.79a.37.37,0,1,1,0,.73.37.37,0,0,1,0-.73Zm.37,19.85a.37.37,0,1,1,0-.73.37.37,0,0,1,0,.73Zm.83-20.87a.37.37,0,1,1-.36.37A.32.32,0,0,1,150.26,20.81Zm.36,21.81a.32.32,0,0,1-.36-.36.37.37,0,1,1,.73,0A.32.32,0,0,1,150.62,42.62Zm1-22.64a.36.36,0,1,1-.37.36A.32.32,0,0,1,151.61,20Zm.25,23.48a.37.37,0,1,1,.36-.37A.32.32,0,0,1,151.86,43.46ZM153,19.39a.33.33,0,0,1,.36.37.37.37,0,0,1-.73,0A.33.33,0,0,1,153,19.39Zm.29,24.76a.37.37,0,1,1,.36-.37A.32.32,0,0,1,153.28,44.15ZM154.48,19a.32.32,0,0,1,.36.36.37.37,0,1,1-.73,0A.32.32,0,0,1,154.48,19Zm.25,25.66a.32.32,0,0,1-.36-.36.33.33,0,0,1,.36-.37.33.33,0,0,1,.37.37A.33.33,0,0,1,154.73,44.62Zm1.2-25.88a.37.37,0,1,1,0,.73.37.37,0,0,1,0-.73Zm.33,26.1a.37.37,0,1,1,.36-.36A.32.32,0,0,1,156.26,44.84Zm1.16-26.1a.37.37,0,1,1,0,.73.37.37,0,0,1,0-.73Zm.37,26.06a.36.36,0,1,1,.36-.36A.32.32,0,0,1,157.79,44.8Zm1.09-25.88a.37.37,0,1,1-.37.37A.32.32,0,0,1,158.88,18.92Zm.43,25.66a.36.36,0,1,1,.36-.36A.32.32,0,0,1,159.31,44.58Zm.8-11.37a.37.37,0,1,1,.36-.37A.32.32,0,0,1,160.11,33.21Zm.18-13.85a.36.36,0,1,1-.36.36A.32.32,0,0,1,160.29,19.36Zm.51,24.79a.37.37,0,1,1,.37-.37A.32.32,0,0,1,160.8,44.15Zm.59-10.94a.37.37,0,1,1,0-.73.37.37,0,0,1,0,.73Zm.28-13.27a.37.37,0,1,1-.36.36A.32.32,0,0,1,161.67,19.94Zm.55,23.59a.37.37,0,1,1,.36-.36A.32.32,0,0,1,162.22,43.53Zm.44-10.32a.37.37,0,1,1,0-.73.37.37,0,0,1,0,.73ZM163,20.7a.37.37,0,1,1-.36.37A.32.32,0,0,1,163,20.7Zm.47,22a.37.37,0,0,1,0-.73.37.37,0,1,1,0,.73Zm.44-9.52a.37.37,0,1,1,0-.73.37.37,0,0,1,0,.73Zm.22-11.49a.37.37,0,0,1,0,.73.37.37,0,1,1,0-.73Zm.47,20a.36.36,0,1,1,.36-.36A.32.32,0,0,1,164.62,41.71Zm.51-18.83a.33.33,0,0,1,.36.37.32.32,0,0,1-.36.36.33.33,0,0,1-.37-.36A.33.33,0,0,1,165.13,22.88Zm.07,10.33a.37.37,0,1,1,.36-.37A.32.32,0,0,1,165.2,33.21Zm.33,7.45a.37.37,0,1,1,0-.73.37.37,0,0,1,0,.73Zm.4-16.54a.37.37,0,0,1,0,.73.37.37,0,1,1,0-.73Zm.58,9.12a.36.36,0,1,1,.36-.36A.32.32,0,0,1,166.51,33.24Zm0,1.46a.37.37,0,1,1,.36-.37A.32.32,0,0,1,166.51,34.7Zm0,1.45a.32.32,0,0,1-.36-.36.36.36,0,1,1,.72,0A.32.32,0,0,1,166.51,36.15Zm0,1.42a.37.37,0,1,1,.36-.37A.32.32,0,0,1,166.51,37.57Zm0,1.49a.37.37,0,1,1,.36-.36A.32.32,0,0,1,166.51,39.06Zm0,2.76a.32.32,0,0,1-.36-.36.36.36,0,1,1,.72,0A.32.32,0,0,1,166.51,41.82Zm0,1.46a.33.33,0,0,1-.36-.37.36.36,0,0,1,.72,0A.33.33,0,0,1,166.51,43.28Zm0,1.45a.37.37,0,1,1,.36-.36A.32.32,0,0,1,166.51,44.73Zm0-4.29a.37.37,0,1,1,.36-.36A.32.32,0,0,1,166.55,40.44Z"/><path class="cls-2" d="M170.54,19.54a.37.37,0,0,1,0-.73.37.37,0,1,1,0,.73Zm.73,1.16a.36.36,0,1,1,.36-.36A.32.32,0,0,1,171.27,20.7Zm.8,1.17a.37.37,0,1,1,.36-.37A.32.32,0,0,1,172.07,21.87Zm.76,1.16a.37.37,0,0,1,0-.73.37.37,0,1,1,0,.73Zm.77,1.16a.36.36,0,1,1,0-.72.36.36,0,1,1,0,.72Zm.72,1.17A.33.33,0,0,1,174,25a.37.37,0,0,1,.73,0A.33.33,0,0,1,174.32,25.36Zm.77,1.16a.37.37,0,1,1,0-.73.37.37,0,0,1,0,.73Zm.76,1.16a.32.32,0,0,1-.36-.36.36.36,0,1,1,.72,0A.32.32,0,0,1,175.85,27.68Zm.8,1.16a.36.36,0,1,1,.36-.36A.32.32,0,0,1,176.65,28.84Zm.73,1.17a.37.37,0,1,1,0-.73.37.37,0,0,1,0,.73Zm.73,1.16a.32.32,0,0,1-.37-.36.37.37,0,1,1,.73,0A.32.32,0,0,1,178.11,31.17Zm.79,1.16a.36.36,0,1,1,.37-.36A.32.32,0,0,1,178.9,32.33Zm.77,1.17a.37.37,0,1,1,0-.73.37.37,0,0,1,0,.73Zm.83,1.09a.37.37,0,1,1,.37-.37A.32.32,0,0,1,180.5,34.59Zm0,1.42a.37.37,0,1,1,.37-.37A.32.32,0,0,1,180.5,36Zm0,1.38a.37.37,0,1,1,.37-.37A.32.32,0,0,1,180.5,37.39Zm0,1.45a.32.32,0,0,1-.36-.36.37.37,0,1,1,.73,0A.32.32,0,0,1,180.5,38.84Zm0,1.49a.32.32,0,0,1-.36-.36.37.37,0,1,1,.73,0A.32.32,0,0,1,180.5,40.33Zm0,1.49a.32.32,0,0,1-.36-.36.37.37,0,1,1,.73,0A.32.32,0,0,1,180.5,41.82Zm0,1.46a.33.33,0,0,1-.36-.37.37.37,0,0,1,.73,0A.33.33,0,0,1,180.5,43.28Zm0,1.45a.37.37,0,0,1,0-.73.37.37,0,1,1,0,.73Zm.84-11.23a.37.37,0,1,1,.36-.37A.32.32,0,0,1,181.34,33.5Zm.76-1.17a.36.36,0,1,1,.37-.36A.32.32,0,0,1,182.1,32.33Zm.8-1.16a.32.32,0,0,1-.36-.36.37.37,0,1,1,.73,0A.32.32,0,0,1,182.9,31.17Zm.73-1.16a.37.37,0,1,1,.36-.37A.32.32,0,0,1,183.63,30Zm.73-1.17a.36.36,0,1,1,.36-.36A.32.32,0,0,1,184.36,28.84Zm.8-1.16a.32.32,0,0,1-.37-.36.37.37,0,1,1,.73,0A.32.32,0,0,1,185.16,27.68Zm.76-1.16a.37.37,0,1,1,.36-.37A.32.32,0,0,1,185.92,26.52Zm.76-1.16a.33.33,0,0,1-.36-.37.37.37,0,0,1,.73,0A.33.33,0,0,1,186.68,25.36Zm.73-1.17a.36.36,0,1,1,.36-.36A.32.32,0,0,1,187.41,24.19Zm.76-1.16a.37.37,0,0,1,0-.73.37.37,0,1,1,0,.73Zm.77-1.16a.37.37,0,1,1,0-.73.37.37,0,0,1,0,.73Zm.8-1.17a.36.36,0,1,1,.36-.36A.32.32,0,0,1,189.74,20.7Zm.72-1.16a.37.37,0,0,1,0-.73.37.37,0,1,1,0,.73Z"/><path class="cls-2" d="M16.59,32.3a.37.37,0,1,1,.37-.37A.32.32,0,0,1,16.59,32.3Zm0-2.29a.32.32,0,0,1,.36.36.36.36,0,1,1-.72,0A.32.32,0,0,1,16.63,30Zm.07,3.81a.36.36,0,1,1,.37-.36A.32.32,0,0,1,16.7,33.82Zm.15-5.3a.36.36,0,1,1-.36.36A.32.32,0,0,1,16.85,28.52ZM17,35.31a.36.36,0,1,1,.36-.36A.32.32,0,0,1,17,35.31Zm.22-8.25a.33.33,0,0,1,.36.37.36.36,0,0,1-.72,0A.33.33,0,0,1,17.25,27.06Zm.25,9.78a.32.32,0,0,1-.36-.36.37.37,0,1,1,.73,0A.32.32,0,0,1,17.5,36.84Zm.29-11.23a.37.37,0,1,1-.36.36A.32.32,0,0,1,17.79,25.61Zm.37,12.58a.37.37,0,1,1,0-.73.37.37,0,0,1,0,.73Zm.36-13.89a.37.37,0,1,1-.36.36A.32.32,0,0,1,18.52,24.3Zm.29,15.12a.36.36,0,0,1,0-.72.36.36,0,1,1,0,.72Zm.58-16.36a.33.33,0,0,1,.37.37.37.37,0,0,1-.73,0A.33.33,0,0,1,19.39,23.06Zm.4,17.56a.32.32,0,0,1-.36-.36.37.37,0,1,1,.73,0A.32.32,0,0,1,19.79,40.62Zm.69-18.79a.37.37,0,1,1-.36.36A.32.32,0,0,1,20.48,21.83Zm.37,19.85a.33.33,0,0,1-.37-.37.33.33,0,0,1,.37-.36.32.32,0,0,1,.36.36A.33.33,0,0,1,20.85,41.68Zm.83-20.87a.37.37,0,1,1-.36.36A.32.32,0,0,1,21.68,20.81Zm.37,21.81a.32.32,0,0,1-.37-.36.37.37,0,1,1,.73,0A.32.32,0,0,1,22.05,42.62ZM23,20a.36.36,0,1,1-.36.36A.32.32,0,0,1,23,20Zm.25,23.48a.37.37,0,1,1,.37-.37A.32.32,0,0,1,23.28,43.46Zm1.13-24.07a.33.33,0,0,1,.36.37.36.36,0,0,1-.72,0A.33.33,0,0,1,24.41,19.39Zm.29,24.76a.37.37,0,1,1,.36-.37A.32.32,0,0,1,24.7,44.15ZM25.9,19a.32.32,0,0,1,.36.36.36.36,0,1,1-.72,0A.32.32,0,0,1,25.9,19Zm.26,25.66a.37.37,0,1,1,.36-.36A.32.32,0,0,1,26.16,44.62Zm1.19-25.88a.37.37,0,1,1-.36.36A.32.32,0,0,1,27.35,18.74Zm.33,26.1a.37.37,0,1,1,.36-.37A.32.32,0,0,1,27.68,44.84Zm1.16-26.1a.37.37,0,1,1-.36.36A.32.32,0,0,1,28.84,18.74Zm.37,26.06a.33.33,0,0,1-.37-.36.33.33,0,0,1,.37-.37.33.33,0,0,1,.36.37A.32.32,0,0,1,29.21,44.8ZM30.3,18.92a.37.37,0,0,1,0,.73.37.37,0,1,1,0-.73Zm.43,25.66a.36.36,0,1,1,.37-.36A.32.32,0,0,1,30.73,44.58Zm1-25.22a.36.36,0,1,1-.37.36A.32.32,0,0,1,31.72,19.36Zm.51,24.79a.37.37,0,1,1,0-.73.37.37,0,0,1,0,.73Zm.87-24.21a.32.32,0,0,1,.36.36.37.37,0,1,1-.73,0A.32.32,0,0,1,33.1,19.94Zm.54,23.59a.37.37,0,0,1,0-.73.37.37,0,1,1,0,.73Zm.8-22.83a.37.37,0,1,1,0,.73.37.37,0,0,1,0-.73Zm.48,22a.37.37,0,1,1,.36-.36A.32.32,0,0,1,34.92,42.73Zm.65-21a.37.37,0,1,1-.36.36A.32.32,0,0,1,35.57,21.72Zm.47,20A.36.36,0,0,1,36,41a.36.36,0,1,1,0,.72Zm.51-18.83a.37.37,0,1,1-.36.37A.32.32,0,0,1,36.55,22.88ZM37,40.66a.37.37,0,1,1,.37-.37A.32.32,0,0,1,37,40.66Zm.33-16.54a.37.37,0,1,1-.36.36A.32.32,0,0,1,37.35,24.12Zm.51,15.27a.37.37,0,1,1,.36-.37A.32.32,0,0,1,37.86,39.39Z"/><path class="cls-2" d="M41.35,19.54a.37.37,0,1,1,.36-.36A.32.32,0,0,1,41.35,19.54Zm.73,1.16a.36.36,0,1,1,.36-.36A.32.32,0,0,1,42.08,20.7Zm.8,1.17a.33.33,0,0,1-.37-.37.37.37,0,0,1,.73,0A.33.33,0,0,1,42.88,21.87ZM43.64,23a.37.37,0,1,1,.36-.36A.32.32,0,0,1,43.64,23Zm.76,1.16a.32.32,0,0,1-.36-.36.33.33,0,0,1,.36-.37.33.33,0,0,1,.37.37A.33.33,0,0,1,44.4,24.19Zm.73,1.17a.33.33,0,0,1-.36-.37.36.36,0,0,1,.72,0A.33.33,0,0,1,45.13,25.36Zm.76,1.16a.37.37,0,1,1,.37-.37A.32.32,0,0,1,45.89,26.52Zm.77,1.16a.32.32,0,0,1-.37-.36.37.37,0,1,1,.73,0A.32.32,0,0,1,46.66,27.68Zm.8,1.16a.36.36,0,1,1,.36-.36A.32.32,0,0,1,47.46,28.84ZM48.18,30a.37.37,0,1,1,.37-.37A.32.32,0,0,1,48.18,30Zm.73,1.16a.32.32,0,0,1-.36-.36.36.36,0,1,1,.72,0A.32.32,0,0,1,48.91,31.17Zm.8,1.16a.36.36,0,1,1,.36-.36A.32.32,0,0,1,49.71,32.33Zm.76,1.17a.37.37,0,0,1,0-.73.37.37,0,1,1,0,.73Zm.84,1.09a.37.37,0,1,1,.36-.37A.32.32,0,0,1,51.31,34.59Zm0,1.42a.33.33,0,0,1-.36-.37.36.36,0,0,1,.72,0A.33.33,0,0,1,51.31,36Zm0,1.38a.37.37,0,1,1,.36-.37A.32.32,0,0,1,51.31,37.39Zm0,1.45a.32.32,0,0,1-.36-.36.36.36,0,1,1,.72,0A.32.32,0,0,1,51.31,38.84Zm0,1.49a.37.37,0,1,1,.36-.36A.32.32,0,0,1,51.31,40.33Zm0,1.49a.32.32,0,0,1-.36-.36.36.36,0,1,1,.72,0A.32.32,0,0,1,51.31,41.82Zm0,1.45a.36.36,0,1,1,.36-.36A.32.32,0,0,1,51.31,43.27Zm0,1.46a.37.37,0,1,1,.36-.36A.32.32,0,0,1,51.31,44.73Zm.83-11.23a.37.37,0,1,1,.37-.37A.32.32,0,0,1,52.14,33.5Zm.77-1.17a.36.36,0,1,1,0-.72.36.36,0,1,1,0,.72Zm.8-1.16a.33.33,0,0,1-.37-.36.33.33,0,0,1,.37-.37.33.33,0,0,1,.36.37A.32.32,0,0,1,53.71,31.17ZM54.43,30a.37.37,0,1,1,.37-.37A.32.32,0,0,1,54.43,30Zm.73-1.17a.36.36,0,0,1,0-.72.36.36,0,1,1,0,.72Zm.8-1.16a.32.32,0,0,1-.36-.36A.33.33,0,0,1,56,27a.33.33,0,0,1,.37.37A.33.33,0,0,1,56,27.68Zm.77-1.16a.37.37,0,1,1,0-.73.37.37,0,0,1,0,.73Zm.76-1.16a.33.33,0,0,1-.36-.37.36.36,0,0,1,.72,0A.33.33,0,0,1,57.49,25.36Zm.72-1.17a.32.32,0,0,1-.36-.36.37.37,0,1,1,.73,0A.32.32,0,0,1,58.21,24.19ZM59,23a.37.37,0,1,1,0-.73A.37.37,0,0,1,59,23Zm.76-1.16a.33.33,0,0,1-.36-.37.32.32,0,0,1,.36-.36.33.33,0,0,1,.37.36A.33.33,0,0,1,59.74,21.87Zm.8-1.17a.36.36,0,1,1,.36-.36A.32.32,0,0,1,60.54,20.7Zm.73-1.16a.37.37,0,1,1,0-.73.37.37,0,0,1,0,.73Z"/><path class="cls-2" d="M67.48,19.9a.36.36,0,1,1,.37-.36A.32.32,0,0,1,67.48,19.9Zm0,1.46a.37.37,0,1,1,.37-.37A.32.32,0,0,1,67.48,21.36Zm0,1.38a.37.37,0,1,1,.37-.37A.32.32,0,0,1,67.48,22.74Zm0,1.31a.37.37,0,1,1,.37-.37A.32.32,0,0,1,67.48,24.05Zm0,1.45a.32.32,0,0,1-.36-.36.37.37,0,1,1,.73,0A.32.32,0,0,1,67.48,25.5Zm0,1.42a.37.37,0,1,1,.37-.37A.32.32,0,0,1,67.48,26.92Zm0,1.56a.32.32,0,0,1-.36-.36.37.37,0,1,1,.73,0A.32.32,0,0,1,67.48,28.48Zm0,1.46a.33.33,0,0,1-.36-.37.37.37,0,0,1,.73,0A.33.33,0,0,1,67.48,29.94Zm0,1.45a.37.37,0,0,1,0-.73.37.37,0,1,1,0,.73Zm0,1.34a.36.36,0,1,1,.37-.36A.32.32,0,0,1,67.48,32.73Zm0,1.46a.37.37,0,1,1,.37-.37A.32.32,0,0,1,67.48,34.19Zm0,1.45a.32.32,0,0,1-.36-.36.37.37,0,1,1,.73,0A.32.32,0,0,1,67.48,35.64Zm0,1.42a.37.37,0,0,1,0-.73.37.37,0,1,1,0,.73Zm0,1.49a.37.37,0,0,1,0-.73.37.37,0,1,1,0,.73Zm0,1.49a.37.37,0,0,1,0-.73.37.37,0,1,1,0,.73Zm0,1.49a.37.37,0,0,1,0-.73.37.37,0,1,1,0,.73Zm0,1.45a.36.36,0,1,1,.37-.36A.32.32,0,0,1,67.48,43Zm0,1.46a.37.37,0,1,1,.37-.37A.32.32,0,0,1,67.48,44.44Zm1-23.85a.36.36,0,1,1,.36-.36A.32.32,0,0,1,68.43,20.59Zm.87,1.09a.36.36,0,1,1,.36-.36A.32.32,0,0,1,69.3,21.68Zm.87,1.09a.36.36,0,1,1,.37-.36A.32.32,0,0,1,70.17,22.77Zm.88,1.09a.36.36,0,1,1,.36-.36A.32.32,0,0,1,71.05,23.86Zm.87,1.1a.33.33,0,0,1-.37-.37.33.33,0,0,1,.37-.36.32.32,0,0,1,.36.36A.33.33,0,0,1,71.92,25Zm.87,1.09a.33.33,0,0,1-.36-.37.36.36,0,1,1,.72,0A.33.33,0,0,1,72.79,26.05Zm.87,1.09a.37.37,0,0,1,0-.73.37.37,0,1,1,0,.73Zm.87,1.09a.37.37,0,1,1,.37-.37A.32.32,0,0,1,74.53,28.23Zm.88,1.09a.37.37,0,1,1,0-.73.37.37,0,0,1,0,.73Zm.87,1.09a.37.37,0,1,1,.36-.37A.32.32,0,0,1,76.28,30.41Zm.87,1.09a.37.37,0,0,1,0-.73.37.37,0,1,1,0,.73ZM78,32.59a.37.37,0,1,1,.37-.37A.32.32,0,0,1,78,32.59Zm.88,1.09a.37.37,0,1,1,.36-.36A.32.32,0,0,1,78.9,33.68Zm.87,1.09a.37.37,0,1,1,.36-.36A.32.32,0,0,1,79.77,34.77Zm.87,1.09A.37.37,0,1,1,81,35.5.32.32,0,0,1,80.64,35.86ZM81.51,37a.32.32,0,0,1-.36-.36.37.37,0,1,1,.73,0A.32.32,0,0,1,81.51,37ZM82.39,38a.32.32,0,0,1-.37-.36.37.37,0,1,1,.73,0A.32.32,0,0,1,82.39,38Zm.87,1.09a.32.32,0,0,1-.36-.36.36.36,0,1,1,.72,0A.32.32,0,0,1,83.26,39.13Zm.87,1.09a.36.36,0,1,1,.36-.36A.32.32,0,0,1,84.13,40.22ZM85,41.31a.36.36,0,1,1,.37-.36A.32.32,0,0,1,85,41.31Zm.88,1.09a.36.36,0,1,1,.36-.36A.32.32,0,0,1,85.88,42.4Zm.87,1.09a.36.36,0,1,1,0-.72.36.36,0,0,1,0,.72Zm.87-23.59a.36.36,0,1,1,.36-.36A.32.32,0,0,1,87.62,19.9Zm0,1.46A.37.37,0,1,1,88,21,.32.32,0,0,1,87.62,21.36Zm0,1.38a.37.37,0,1,1,.36-.37A.32.32,0,0,1,87.62,22.74Zm0,1.31a.37.37,0,1,1,.36-.37A.32.32,0,0,1,87.62,24.05Zm0,1.45a.32.32,0,0,1-.36-.36.36.36,0,1,1,.72,0A.32.32,0,0,1,87.62,25.5Zm0,1.42a.37.37,0,1,1,.36-.37A.32.32,0,0,1,87.62,26.92Zm0,1.56a.32.32,0,0,1-.36-.36.36.36,0,1,1,.72,0A.32.32,0,0,1,87.62,28.48Zm0,1.46a.33.33,0,0,1-.36-.37.36.36,0,0,1,.72,0A.33.33,0,0,1,87.62,29.94Zm0,1.45A.37.37,0,1,1,88,31,.32.32,0,0,1,87.62,31.39Zm0,1.34a.36.36,0,1,1,.36-.36A.32.32,0,0,1,87.62,32.73Zm0,1.46a.37.37,0,1,1,.36-.37A.32.32,0,0,1,87.62,34.19Zm0,1.45a.32.32,0,0,1-.36-.36.36.36,0,1,1,.72,0A.32.32,0,0,1,87.62,35.64Zm0,1.42A.37.37,0,1,1,88,36.7.32.32,0,0,1,87.62,37.06Zm0,1.49a.37.37,0,1,1,.36-.36A.32.32,0,0,1,87.62,38.55Zm0,1.49a.37.37,0,1,1,.36-.36A.32.32,0,0,1,87.62,40Zm0,1.49a.37.37,0,1,1,.36-.36A.32.32,0,0,1,87.62,41.53Zm0,1.45a.36.36,0,1,1,.36-.36A.32.32,0,0,1,87.62,43Zm0,1.46a.37.37,0,1,1,.36-.37A.32.32,0,0,1,87.62,44.44Z"/><path class="cls-2" d="M96.71,19.9a.36.36,0,1,1,0-.72.36.36,0,0,1,0,.72Zm0,1.35a.37.37,0,1,1,0-.73.37.37,0,0,1,0,.73Zm0,1.38a.37.37,0,1,1,0-.73.37.37,0,0,1,0,.73Zm0,1.31a.37.37,0,1,1,0-.73.37.37,0,0,1,0,.73Zm0,1.45a.33.33,0,0,1-.37-.36.33.33,0,0,1,.37-.37.33.33,0,0,1,.36.37A.32.32,0,0,1,96.71,25.39Zm0,1.42a.37.37,0,1,1,0-.73.37.37,0,0,1,0,.73Zm0,1.56a.36.36,0,1,1,0-.72.36.36,0,1,1,0,.72Zm0,1.46a.37.37,0,1,1,0-.73.37.37,0,0,1,0,.73Zm0,1.45a.37.37,0,1,1,0-.73.37.37,0,0,1,0,.73Zm0,1.34a.36.36,0,1,1,0-.72.36.36,0,0,1,0,.72Zm0,1.46a.37.37,0,1,1,0-.73.37.37,0,0,1,0,.73Zm0,1.45a.36.36,0,1,1,0-.72.36.36,0,0,1,0,.72Zm0,1.42a.33.33,0,0,1-.37-.36.33.33,0,0,1,.37-.37.33.33,0,0,1,.36.37A.32.32,0,0,1,96.71,37Zm0,1.49a.33.33,0,0,1-.37-.36.33.33,0,0,1,.37-.37.33.33,0,0,1,.36.37A.32.32,0,0,1,96.71,38.44Zm0,1.49a.33.33,0,0,1-.37-.36.33.33,0,0,1,.37-.37.33.33,0,0,1,.36.37A.32.32,0,0,1,96.71,39.93Zm0,1.49a.33.33,0,0,1-.37-.36.33.33,0,0,1,.37-.37.33.33,0,0,1,.36.37A.32.32,0,0,1,96.71,41.42Zm0,1.45a.36.36,0,1,1,0-.72.36.36,0,0,1,0,.72Zm0,1.46a.37.37,0,1,1,0-.73.37.37,0,0,1,0,.73Zm1.2-12.43a.37.37,0,1,1,0-.73.37.37,0,0,1,0,.73ZM98,44.37a.33.33,0,0,1-.36-.37.36.36,0,1,1,.72,0A.33.33,0,0,1,98,44.37Zm.07-24.5a.37.37,0,0,1,0-.73.37.37,0,1,1,0,.73Zm1.13,12a.37.37,0,1,1,.36-.37A.32.32,0,0,1,99.18,31.9Zm.07,12.47a.33.33,0,0,1-.36-.37.32.32,0,0,1,.36-.36.33.33,0,0,1,.37.36A.33.33,0,0,1,99.25,44.37Zm.08-24.5a.37.37,0,1,1,0-.73.37.37,0,0,1,0,.73Zm1.12,12a.37.37,0,1,1,.36-.37A.32.32,0,0,1,100.45,31.9Zm.07,12.47a.33.33,0,0,1-.36-.37.37.37,0,0,1,.73,0A.33.33,0,0,1,100.52,44.37Zm.08-24.5a.37.37,0,1,1,0-.73.37.37,0,0,1,0,.73Zm1.16,12a.37.37,0,1,1,.36-.37A.32.32,0,0,1,101.76,31.9Zm.07,12.47a.33.33,0,0,1-.36-.37.37.37,0,0,1,.73,0A.33.33,0,0,1,101.83,44.37Zm.08-24.5a.37.37,0,1,1,0-.73.37.37,0,0,1,0,.73Zm1.16,12a.37.37,0,1,1,.36-.37A.32.32,0,0,1,103.07,31.9Zm.07,12.47a.33.33,0,0,1-.36-.37.36.36,0,1,1,.72,0A.33.33,0,0,1,103.14,44.37Zm.07-24.5a.37.37,0,1,1,.37-.37A.32.32,0,0,1,103.21,19.87Zm1.13,12a.37.37,0,1,1,.36-.37A.32.32,0,0,1,104.34,31.9Zm.07,12.47a.33.33,0,0,1-.36-.37.37.37,0,0,1,.73,0A.33.33,0,0,1,104.41,44.37Zm.08-24.5a.37.37,0,1,1,0-.73.37.37,0,0,1,0,.73Zm1.12,12a.37.37,0,0,1,0-.73.37.37,0,1,1,0,.73Zm.08,12.47a.33.33,0,0,1-.37-.37.37.37,0,0,1,.73,0A.33.33,0,0,1,105.69,44.37Zm.07-24.5a.37.37,0,1,1,.36-.37A.32.32,0,0,1,105.76,19.87Zm1.16,12a.37.37,0,0,1,0-.73.37.37,0,1,1,0,.73ZM107,44.37a.33.33,0,0,1-.36-.37.37.37,0,0,1,.73,0A.33.33,0,0,1,107,44.37Zm.08-24.5a.37.37,0,1,1,0-.73.37.37,0,0,1,0,.73Zm1.12,12a.37.37,0,1,1,.37-.37A.32.32,0,0,1,108.19,31.9Zm.08,12.47a.33.33,0,0,1-.37-.37.37.37,0,0,1,.73,0A.33.33,0,0,1,108.27,44.37Zm.07-24.5a.37.37,0,1,1,.36-.37A.32.32,0,0,1,108.34,19.87Zm1.16,12a.37.37,0,0,1,0-.73.37.37,0,1,1,0,.73Zm.08,12.47a.33.33,0,0,1-.37-.37.37.37,0,0,1,.73,0A.33.33,0,0,1,109.58,44.37Zm.07-24.5a.37.37,0,1,1,0-.73.37.37,0,0,1,0,.73Zm1.16,12a.37.37,0,1,1,.36-.37A.32.32,0,0,1,110.81,31.9Zm.07,12.47a.33.33,0,0,1-.36-.37.37.37,0,0,1,.73,0A.33.33,0,0,1,110.88,44.37Zm.08-24.5a.37.37,0,1,1,0-.73.37.37,0,0,1,0,.73Zm1.2,24.5a.33.33,0,0,1-.37-.37.37.37,0,0,1,.73,0A.33.33,0,0,1,112.16,44.37Zm.07-24.5a.37.37,0,1,1,0-.73.37.37,0,0,1,0,.73Z"/><path class="cls-2" d="M119.86,19.9a.36.36,0,0,1,0-.72.36.36,0,1,1,0,.72Zm0,1.35a.37.37,0,0,1,0-.73.37.37,0,1,1,0,.73Zm0,1.38a.37.37,0,0,1,0-.73.37.37,0,1,1,0,.73Zm0,1.31a.37.37,0,0,1,0-.73.37.37,0,1,1,0,.73Zm0,1.45a.32.32,0,0,1-.36-.36.33.33,0,0,1,.36-.37.33.33,0,0,1,.37.37A.33.33,0,0,1,119.86,25.39Zm0,1.42a.37.37,0,0,1,0-.73.37.37,0,1,1,0,.73Zm0,1.56a.36.36,0,0,1,0-.72.36.36,0,1,1,0,.72Zm0,1.46a.37.37,0,0,1,0-.73.37.37,0,1,1,0,.73Zm0,1.45a.37.37,0,0,1,0-.73.37.37,0,1,1,0,.73Zm0,1.34a.36.36,0,0,1,0-.72.36.36,0,1,1,0,.72Zm0,1.46a.37.37,0,0,1,0-.73.37.37,0,1,1,0,.73Zm0,1.45a.36.36,0,0,1,0-.72.36.36,0,1,1,0,.72Zm0,1.42a.32.32,0,0,1-.36-.36.33.33,0,0,1,.36-.37.33.33,0,0,1,.37.37A.33.33,0,0,1,119.86,37Zm0,1.49a.32.32,0,0,1-.36-.36.33.33,0,0,1,.36-.37.33.33,0,0,1,.37.37A.33.33,0,0,1,119.86,38.44Zm0,1.49a.32.32,0,0,1-.36-.36.33.33,0,0,1,.36-.37.33.33,0,0,1,.37.37A.33.33,0,0,1,119.86,39.93Zm0,1.49a.32.32,0,0,1-.36-.36.33.33,0,0,1,.36-.37.33.33,0,0,1,.37.37A.33.33,0,0,1,119.86,41.42Zm0,1.45a.36.36,0,0,1,0-.72.36.36,0,1,1,0,.72Zm0,1.46a.37.37,0,0,1,0-.73.37.37,0,1,1,0,.73Zm1.2-24.54a.36.36,0,0,1,0-.72.36.36,0,1,1,0,.72Zm0,14.62a.33.33,0,0,1-.36-.37.32.32,0,0,1,.36-.36.33.33,0,0,1,.37.36A.33.33,0,0,1,121.06,34.41Zm1.27-14.62a.36.36,0,1,1,.37-.36A.32.32,0,0,1,122.33,19.79Zm0,14.62A.33.33,0,0,1,122,34a.37.37,0,0,1,.73,0A.33.33,0,0,1,122.33,34.41Zm1.28-14.62a.36.36,0,1,1,.36-.36A.32.32,0,0,1,123.61,19.79Zm0,14.62a.33.33,0,0,1-.37-.37.37.37,0,0,1,.73,0A.33.33,0,0,1,123.61,34.41Zm1.27-14.62a.36.36,0,1,1,0-.72.36.36,0,0,1,0,.72Zm0,14.62a.33.33,0,0,1-.37-.37.33.33,0,0,1,.37-.36.32.32,0,0,1,.36.36A.33.33,0,0,1,124.88,34.41Zm1.27-14.65a.37.37,0,1,1,.36-.37A.32.32,0,0,1,126.15,19.76Zm0,14.65a.33.33,0,0,1-.36-.37.36.36,0,0,1,.72,0A.33.33,0,0,1,126.15,34.41Zm1.27-14.65a.37.37,0,0,1,0-.73.37.37,0,1,1,0,.73Zm0,14.65a.33.33,0,0,1-.36-.37.32.32,0,0,1,.36-.36.33.33,0,0,1,.37.36A.33.33,0,0,1,127.42,34.41Zm1.27-14.65a.37.37,0,1,1,.37-.37A.32.32,0,0,1,128.69,19.76Zm0,14.65a.33.33,0,0,1-.36-.37.36.36,0,0,1,.72,0A.33.33,0,0,1,128.73,34.41ZM130,19.79a.36.36,0,1,1,.36-.36A.32.32,0,0,1,130,19.79ZM130,34.41a.33.33,0,0,1-.36-.37.36.36,0,0,1,.72,0A.33.33,0,0,1,130,34.41Zm.36,1.12a.36.36,0,1,1,.37-.36A.32.32,0,0,1,130.4,35.53Zm.84-15.59a.37.37,0,1,1,.36-.36A.32.32,0,0,1,131.24,19.94Zm0,16.68a.36.36,0,1,1,.36-.36A.32.32,0,0,1,131.24,36.62Zm.07-2.32a.37.37,0,0,1,0-.73.37.37,0,1,1,0,.73Zm.66,3.49a.37.37,0,1,1,0-.73.37.37,0,0,1,0,.73Zm.47-17.45a.37.37,0,1,1,.36-.36A.32.32,0,0,1,132.44,20.34Zm.07,12.83a.37.37,0,1,1,0,.73.37.37,0,0,1,0-.73Zm.26,5.78a.37.37,0,1,1,.36-.36A.32.32,0,0,1,132.77,39Zm.72,1.16a.36.36,0,0,1,0-.72.36.36,0,1,1,0,.72Zm0-19.84a.36.36,0,1,1-.36.36A.32.32,0,0,1,133.53,20.27Zm.11,12.21a.37.37,0,1,1-.36.36A.32.32,0,0,1,133.64,32.48Zm.62,8.8a.33.33,0,0,1-.37-.37.37.37,0,0,1,.73,0A.33.33,0,0,1,134.26,41.28Zm.29-20.11a.33.33,0,0,1,.36.37.37.37,0,0,1-.73,0A.33.33,0,0,1,134.55,21.17Zm0,10.44a.36.36,0,1,1,0,.72.36.36,0,0,1,0-.72ZM135,42.44a.37.37,0,1,1,.36-.36A.32.32,0,0,1,135,42.44Zm.33-20.14a.37.37,0,1,1-.37.37A.32.32,0,0,1,135.35,22.3Zm.07,8.22a.36.36,0,1,1-.36.36A.32.32,0,0,1,135.42,30.52Zm.33,13.08a.32.32,0,0,1-.37-.36.37.37,0,1,1,.73,0A.32.32,0,0,1,135.75,43.6Zm.25-20a.33.33,0,0,1,.36.37.36.36,0,1,1-.72,0A.33.33,0,0,1,136,23.57Zm0,5.67a.33.33,0,0,1,.36.37.36.36,0,1,1-.72,0A.33.33,0,0,1,136,29.24Zm.36-4.28a.36.36,0,1,1-.36.36A.32.32,0,0,1,136.36,25Zm0,2.9a.33.33,0,0,1,.37.37.37.37,0,0,1-.73,0A.33.33,0,0,1,136.36,27.86Zm.19-1.45a.37.37,0,0,1,0,.73.37.37,0,1,1,0-.73Zm0,18.36a.33.33,0,0,1-.37-.37.37.37,0,0,1,.73,0A.33.33,0,0,1,136.55,44.77Z"/><path class="cls-2" d="M142.29,32.3a.37.37,0,1,1,.36-.37A.32.32,0,0,1,142.29,32.3Zm0-2.29a.32.32,0,0,1,.37.36.37.37,0,1,1-.73,0A.32.32,0,0,1,142.32,30Zm.08,3.81a.36.36,0,1,1,0-.72.36.36,0,0,1,0,.72Zm.14-5.3a.36.36,0,1,1,0,.72.36.36,0,1,1,0-.72Zm.18,6.79a.36.36,0,1,1,.37-.36A.32.32,0,0,1,142.72,35.31Zm.22-8.25a.33.33,0,0,1,.37.37.33.33,0,0,1-.37.36.32.32,0,0,1-.36-.36A.33.33,0,0,1,142.94,27.06Zm.26,9.78a.32.32,0,0,1-.37-.36.37.37,0,1,1,.73,0A.32.32,0,0,1,143.2,36.84Zm.29-11.23a.37.37,0,0,1,0,.73.37.37,0,1,1,0-.73Zm.36,12.58a.37.37,0,0,1,0-.73.37.37,0,1,1,0,.73Zm.37-13.89a.37.37,0,0,1,0,.73.37.37,0,1,1,0-.73Zm.29,15.12a.36.36,0,1,1,.36-.36A.32.32,0,0,1,144.51,39.42Zm.58-16.36a.33.33,0,0,1,.36.37.32.32,0,0,1-.36.36.33.33,0,0,1-.37-.36A.33.33,0,0,1,145.09,23.06Zm.4,17.56a.32.32,0,0,1-.37-.36.37.37,0,1,1,.73,0A.32.32,0,0,1,145.49,40.62Zm.69-18.79a.37.37,0,0,1,0,.73.37.37,0,1,1,0-.73Zm.36,19.85a.33.33,0,0,1-.36-.37.32.32,0,0,1,.36-.36.33.33,0,0,1,.37.36A.33.33,0,0,1,146.54,41.68Zm.84-20.87a.37.37,0,0,1,0,.73.37.37,0,1,1,0-.73Zm.36,21.81a.32.32,0,0,1-.36-.36.36.36,0,1,1,.72,0A.32.32,0,0,1,147.74,42.62Zm1-22.64a.36.36,0,1,1,0,.72.36.36,0,1,1,0-.72ZM149,43.46a.37.37,0,1,1,0-.73.37.37,0,0,1,0,.73Zm1.12-24.07a.33.33,0,0,1,.37.37.37.37,0,0,1-.73,0A.33.33,0,0,1,150.1,19.39Zm.29,24.76a.37.37,0,1,1,.37-.37A.32.32,0,0,1,150.39,44.15ZM151.59,19a.32.32,0,0,1,.37.36.37.37,0,1,1-.73,0A.32.32,0,0,1,151.59,19Zm.26,25.66a.37.37,0,1,1,0-.73.37.37,0,0,1,0,.73Zm1.2-25.88a.37.37,0,0,1,0,.73.37.37,0,1,1,0-.73Zm.33,26.1a.37.37,0,1,1,0-.73.37.37,0,0,1,0,.73Zm1.16-26.1a.37.37,0,0,1,0,.73.37.37,0,1,1,0-.73Zm.36,26.06a.32.32,0,0,1-.36-.36.33.33,0,0,1,.36-.37.33.33,0,0,1,.37.37A.33.33,0,0,1,154.9,44.8ZM156,18.92a.37.37,0,1,1,0,.73.37.37,0,0,1,0-.73Zm.44,25.66a.36.36,0,1,1,.36-.36A.32.32,0,0,1,156.43,44.58Zm.8-11.37a.37.37,0,1,1,0-.73.37.37,0,0,1,0,.73Zm.18-13.85a.36.36,0,1,1-.36.36A.32.32,0,0,1,157.41,19.36Zm.51,24.79a.37.37,0,1,1,.36-.37A.32.32,0,0,1,157.92,44.15Zm.58-10.94a.37.37,0,1,1,.36-.37A.32.32,0,0,1,158.5,33.21Zm.29-13.27a.32.32,0,0,1,.36.36.36.36,0,1,1-.72,0A.32.32,0,0,1,158.79,19.94Zm.55,23.59a.37.37,0,1,1,.36-.36A.32.32,0,0,1,159.34,43.53Zm.43-10.32a.37.37,0,0,1,0-.73.37.37,0,1,1,0,.73Zm.37-12.51a.37.37,0,1,1-.37.37A.32.32,0,0,1,160.14,20.7Zm.47,22a.37.37,0,1,1,0-.73.37.37,0,0,1,0,.73Zm.43-9.52a.37.37,0,1,1,.37-.37A.32.32,0,0,1,161,33.21Zm.22-11.49a.37.37,0,1,1-.36.36A.32.32,0,0,1,161.26,21.72Zm.48,20a.36.36,0,1,1,.36-.36A.32.32,0,0,1,161.74,41.71Zm.5-18.83a.37.37,0,1,1,0,.73.37.37,0,0,1,0-.73Zm.08,10.33a.37.37,0,1,1,0-.73.37.37,0,0,1,0,.73Zm.32,7.45a.37.37,0,1,1,.37-.37A.32.32,0,0,1,162.64,40.66Zm.4-16.54a.37.37,0,1,1-.36.36A.32.32,0,0,1,163,24.12Zm.59,9.12a.36.36,0,1,1,.36-.36A.32.32,0,0,1,163.63,33.24Zm0,1.46a.37.37,0,1,1,0-.73.37.37,0,0,1,0,.73Zm0,1.45a.32.32,0,0,1-.37-.36.37.37,0,1,1,.73,0A.32.32,0,0,1,163.63,36.15Zm0,1.42a.37.37,0,1,1,0-.73.37.37,0,0,1,0,.73Zm0,1.49a.37.37,0,1,1,.36-.36A.32.32,0,0,1,163.63,39.06Zm0,2.76a.32.32,0,0,1-.37-.36.37.37,0,1,1,.73,0A.32.32,0,0,1,163.63,41.82Zm0,1.45a.36.36,0,1,1,.36-.36A.32.32,0,0,1,163.63,43.27Zm0,1.46a.37.37,0,1,1,.36-.36A.32.32,0,0,1,163.63,44.73Zm0-4.29a.37.37,0,0,1,0-.73.37.37,0,1,1,0,.73Z"/><path class="cls-2" d="M167.66,19.54a.37.37,0,1,1,.36-.36A.32.32,0,0,1,167.66,19.54Zm.73,1.16a.36.36,0,1,1,.36-.36A.32.32,0,0,1,168.39,20.7Zm.8,1.17a.33.33,0,0,1-.37-.37.37.37,0,0,1,.73,0A.33.33,0,0,1,169.19,21.87ZM170,23a.37.37,0,1,1,.36-.36A.32.32,0,0,1,170,23Zm.76,1.16a.32.32,0,0,1-.36-.36.37.37,0,1,1,.73,0A.32.32,0,0,1,170.71,24.19Zm.73,1.17a.33.33,0,0,1-.36-.37.36.36,0,0,1,.72,0A.33.33,0,0,1,171.44,25.36Zm.76,1.16a.37.37,0,1,1,.37-.37A.32.32,0,0,1,172.2,26.52Zm.77,1.16a.33.33,0,0,1-.37-.36A.33.33,0,0,1,173,27a.33.33,0,0,1,.36.37A.32.32,0,0,1,173,27.68Zm.8,1.16a.36.36,0,1,1,.36-.36A.32.32,0,0,1,173.77,28.84Zm.72,1.17a.37.37,0,1,1,.37-.37A.32.32,0,0,1,174.49,30Zm.73,1.16a.32.32,0,0,1-.36-.36.33.33,0,0,1,.36-.37.33.33,0,0,1,.37.37A.33.33,0,0,1,175.22,31.17Zm.8,1.16a.36.36,0,1,1,.36-.36A.32.32,0,0,1,176,32.33Zm.76,1.17a.37.37,0,1,1,.37-.37A.32.32,0,0,1,176.78,33.5Zm.84,1.09a.37.37,0,1,1,.36-.37A.32.32,0,0,1,177.62,34.59Zm0,1.42a.33.33,0,0,1-.36-.37.36.36,0,1,1,.72,0A.33.33,0,0,1,177.62,36Zm0,1.38A.37.37,0,1,1,178,37,.32.32,0,0,1,177.62,37.39Zm0,1.45a.32.32,0,0,1-.36-.36.36.36,0,1,1,.72,0A.32.32,0,0,1,177.62,38.84Zm0,1.49A.37.37,0,1,1,178,40,.32.32,0,0,1,177.62,40.33Zm0,1.49a.32.32,0,0,1-.36-.36.36.36,0,1,1,.72,0A.32.32,0,0,1,177.62,41.82Zm0,1.45a.36.36,0,1,1,.36-.36A.32.32,0,0,1,177.62,43.27Zm0,1.46a.37.37,0,1,1,.36-.36A.32.32,0,0,1,177.62,44.73Zm.84-11.23a.37.37,0,1,1,0-.73.37.37,0,0,1,0,.73Zm.76-1.17a.36.36,0,1,1,.36-.36A.32.32,0,0,1,179.22,32.33Zm.8-1.16a.32.32,0,0,1-.36-.36.36.36,0,1,1,.72,0A.32.32,0,0,1,180,31.17Zm.73-1.16a.37.37,0,1,1,0-.73.37.37,0,0,1,0,.73Zm.72-1.17a.36.36,0,1,1,0-.72.36.36,0,1,1,0,.72Zm.8-1.16a.32.32,0,0,1-.36-.36.33.33,0,0,1,.36-.37.33.33,0,0,1,.37.37A.33.33,0,0,1,182.27,27.68Zm.77-1.16a.37.37,0,1,1,0-.73.37.37,0,0,1,0,.73Zm.76-1.16a.33.33,0,0,1-.36-.37.36.36,0,1,1,.72,0A.33.33,0,0,1,183.8,25.36Zm.73-1.17a.32.32,0,0,1-.37-.36.37.37,0,1,1,.73,0A.32.32,0,0,1,184.53,24.19Zm.76-1.16a.37.37,0,1,1,.36-.36A.32.32,0,0,1,185.29,23Zm.76-1.16a.33.33,0,0,1-.36-.37.37.37,0,0,1,.73,0A.33.33,0,0,1,186.05,21.87Zm.8-1.17a.36.36,0,1,1,.37-.36A.32.32,0,0,1,186.85,20.7Zm.73-1.16a.37.37,0,1,1,.36-.36A.32.32,0,0,1,187.58,19.54Z"/><polyline class="cls-3" points="199.93 13.35 208.12 13.35 208.12 6.88 208.12 0 199.94 0 195.99 6.88 199.93 13.35"/><polygon class="cls-4" points="196.77 0 192.73 0 188.78 6.88 192.72 13.35 196.76 13.35 192.82 6.88 196.77 0"/><polygon class="cls-5" points="188.78 0 184.74 0 180.79 6.88 184.73 13.35 188.77 13.35 184.83 6.88 188.78 0"/><polyline class="cls-6" points="8.18 50.41 0 50.41 0 56.88 0 63.76 8.17 63.76 12.12 56.88 8.18 50.41"/><polygon class="cls-7" points="11.35 63.76 15.38 63.76 19.34 56.88 15.4 50.41 11.36 50.41 15.3 56.88 11.35 63.76"/><polygon class="cls-8" points="19.34 63.76 23.37 63.76 27.32 56.88 23.38 50.41 19.35 50.41 23.28 56.88 19.34 63.76"/></g></g></svg>