<svg xmlns="http://www.w3.org/2000/svg" viewBox="0 0 79.7 86.85"><defs><style>.cls-1{fill:#ffe478;}</style></defs><title>Asset 3</title><g id="Layer_2" data-name="Layer 2"><g id="Layer_1-2" data-name="Layer 1"><path class="cls-1" d="M41.54,9V1.69a1.69,1.69,0,1,0-3.38,0V9a1.69,1.69,0,1,0,3.38,0Z"/><path class="cls-1" d="M78,38.17H70.66a1.69,1.69,0,0,0,0,3.37H78a1.69,1.69,0,0,0,0-3.37Z"/><path class="cls-1" d="M0,39.85a1.68,1.68,0,0,0,1.69,1.69H9a1.69,1.69,0,1,0,0-3.37H1.69A1.68,1.68,0,0,0,0,39.85Z"/><path class="cls-1" d="M65.64,11.67l-5.19,5.2a1.69,1.69,0,0,0,0,2.39,1.7,1.7,0,0,0,2.39,0L68,14.06a1.69,1.69,0,1,0-2.39-2.39Z"/><path class="cls-1" d="M14.06,11.67a1.71,1.71,0,0,0-2.39,0,1.69,1.69,0,0,0,0,2.39l5.2,5.19a1.68,1.68,0,1,0,2.38-2.38Z"/><path class="cls-1" d="M49.4,16.69a1.81,1.81,0,0,0,.64.12,1.69,1.69,0,0,0,1.56-1L54,9.87a1.69,1.69,0,0,0-3.12-1.28l-2.43,5.89A1.69,1.69,0,0,0,49.4,16.69Z"/><path class="cls-1" d="M63,49.4a1.7,1.7,0,0,0,.92,2.2L69.83,54A1.69,1.69,0,0,0,72,53.11a1.69,1.69,0,0,0-.92-2.2l-5.89-2.43A1.68,1.68,0,0,0,63,49.4Z"/><path class="cls-1" d="M7.66,26.59a1.7,1.7,0,0,0,.92,2.21l5.9,2.43a1.78,1.78,0,0,0,.64.13,1.69,1.69,0,0,0,.64-3.25L9.87,25.68A1.69,1.69,0,0,0,7.66,26.59Z"/><path class="cls-1" d="M72,26.47a1.69,1.69,0,0,0-2.21-.91L63.89,28a1.69,1.69,0,0,0,.65,3.25,1.64,1.64,0,0,0,.65-.13l5.89-2.45A1.7,1.7,0,0,0,72,26.47Z"/><path class="cls-1" d="M9.92,54.15l5.89-2.45a1.69,1.69,0,0,0-1.3-3.12L8.62,51a1.69,1.69,0,0,0,.65,3.25A1.64,1.64,0,0,0,9.92,54.15Z"/><path class="cls-1" d="M29.57,16.85a1.63,1.63,0,0,0,.64-.13,1.68,1.68,0,0,0,.91-2.2L28.67,8.63a1.69,1.69,0,1,0-3.11,1.3L28,15.81A1.69,1.69,0,0,0,29.57,16.85Z"/><path class="cls-1" d="M38.16,66.22V58.37l-6.85-6.85a1.69,1.69,0,0,1,2.38-2.39l4.47,4.47V52.36h0V46.88L31.31,40a1.69,1.69,0,1,1,2.39-2.38l4.45,4.46V31.24a1.69,1.69,0,0,1,3.38,0V36.8L46,32.32a1.68,1.68,0,0,1,2.38,0,1.7,1.7,0,0,1,0,2.39l-6.86,6.86v6.72L46,43.82a1.69,1.69,0,1,1,2.38,2.39l-6.85,6.85V66.21a26.1,26.1,0,0,0-1.08-47.82,1.66,1.66,0,0,0-1.24,0,26.11,26.11,0,0,0-1.06,47.83Z"/><path class="cls-1" d="M30.46,68.13a1.68,1.68,0,0,0-1.68,1.69v4.45c0,3.94,2.41,7.2,5.59,7.66l.56.59a4.62,4.62,0,0,0,4.92,4.33,4.64,4.64,0,0,0,4.93-4.33l.54-.57c3.15-.42,5.61-3.7,5.61-7.68V69.82a1.69,1.69,0,0,0-1.69-1.69Z"/></g></g></svg>