<svg xmlns="http://www.w3.org/2000/svg" viewBox="0 0 159.64 245.48"><title>Asset 1</title><g id="Layer_2" data-name="Layer 2"><g id="Layer_1-2" data-name="Layer 1"><polygon points="37.51 149.71 37.51 160.31 74.93 160.31 74.93 198.01 84.15 198.01 84.15 160.31 122.13 160.31 122.13 149.71 37.51 149.71"/><rect x="34.72" y="225.93" width="38.78" height="19.55"/><polygon points="73.5 223.67 34.72 223.67 37.32 162 73.5 162 73.5 223.67"/><rect x="85.95" y="225.93" width="38.78" height="19.55"/><polygon points="85.95 223.67 124.73 223.67 122.13 162 85.95 162 85.95 223.67"/><rect x="65.86" width="27.93" height="8.36"/><path d="M97,9.78H62.65c-7.1,0-12.85,4.05-12.85,9V53.24c0,5,5.75,9,12.85,9H60.13v4.45H99.51V62.28H97c7.1,0,12.85-4.05,12.85-9V18.82C109.84,13.83,104.09,9.78,97,9.78ZM88.16,30.2A3.13,3.13,0,1,1,85,33.33,3.13,3.13,0,0,1,88.16,30.2Zm-1.36,16h1.68c0,2.66-4,4.67-9.36,4.67s-9.36-2-9.36-4.67h1.68c0,1.41,3.28,3,7.68,3S86.8,47.6,86.8,46.19Zm-16.72-16A3.13,3.13,0,1,1,67,33.33,3.13,3.13,0,0,1,70.08,30.2Z"/><path d="M114.31,75.13c-1.4-8.1-6.15-6.7-6.15-6.7H51.47s-4.74-1.4-6.14,6.7L34.16,140.75V148h91.32v-7.27Z"/><path d="M30.91,164.14c0-.13,0-.25,0-.38s0-.52,0-.78-.05-.54-.08-.8-.06-.43-.1-.64-.11-.62-.18-.92l-.12-.47c-.1-.35-.2-.68-.31-1,0-.13-.09-.24-.13-.36-.13-.35-.27-.7-.43-1l-.15-.32c-.17-.34-.34-.67-.52-1-.07-.12-.14-.24-.22-.36-.18-.29-.36-.58-.56-.87l-.31-.41c-.19-.25-.38-.49-.59-.73l-.4-.45c-.2-.21-.4-.42-.61-.62s-.31-.29-.47-.43L25,152c-.16-.13-.33-.25-.49-.36s-.51-.36-.77-.53l-.45-.27q-.45-.27-.93-.51l-.37-.18c-.36-.17-.72-.32-1.09-.46l-.17-.08-.17-.05c-.37-.13-.74-.24-1.11-.34l-.44-.11c-.33-.08-.65-.14-1-.2s-.41-.06-.61-.09-.55-.06-.83-.08-.52,0-.78,0l-.35,0-.39,0-.8,0-.77.08-.68.1-.87.17-.54.14-.93.28-.46.17c-.31.12-.62.24-.93.38l-.45.22c-.29.14-.57.28-.84.44l-.52.31-.7.46c-.2.14-.39.29-.58.44s-.38.29-.56.45l-.62.56c-.15.14-.3.28-.44.43s-.41.44-.61.67l-.38.45c-.18.23-.35.47-.52.71s-.25.35-.37.53-.28.46-.42.69-.25.44-.37.67-.21.42-.3.64-.24.53-.34.8c0,.11-.1.21-.14.32H1A15.38,15.38,0,0,0,0,164.14c-.1,3.82,2,9.34,4,9.34,3.24,0,2.08-6.37,2.08-9.34h0a9.35,9.35,0,0,1,.65-3.4c.06-.16.12-.3.19-.45s.13-.28.2-.42.13-.25.2-.37l.27-.44c.06-.1.14-.2.2-.3l.34-.45.22-.26c.12-.14.24-.27.37-.4l.26-.27.37-.33.35-.28.34-.25c.15-.11.3-.2.45-.3l.28-.17c.18-.1.36-.2.55-.29l.23-.11.61-.25.22-.08.62-.19.26-.06.6-.12.32,0a5.32,5.32,0,0,1,.56-.06l.39,0h.54l.37,0q.3,0,.6.06l.27,0c.24,0,.47.08.7.14l.16,0q.39.1.78.24l.1,0c.27.1.52.21.76.32l.13.07a7,7,0,0,1,.66.36l.18.1c.2.12.38.25.57.39l.2.15c.17.13.33.27.49.41l.2.18c.16.15.31.31.45.46l.16.19c.15.17.3.35.43.53l.12.16c.14.2.28.4.4.61l.08.12q.19.35.36.69a.47.47,0,0,0,.05.1c.11.24.2.47.29.72l.05.12c.08.23.15.46.21.7,0,.06,0,.13.05.2s.09.42.13.63,0,.21,0,.31a5,5,0,0,1,.06.56c0,.13,0,.26,0,.4a9.46,9.46,0,0,1-.55,3.46c-1,2.79-4.55,8.29-1.51,9.39,2,.71,5.92-3.64,7.25-7.3h0a15.08,15.08,0,0,0,.92-5.29Z"/><path d="M37.5,75.23c-6.51.59-11.64,9.46-11.64,9.46L13.64,109.15a51.54,51.54,0,0,0-2.2,7.27L7.68,137.19c.27-1.55,6-1.84,12.76-.65s12,3.42,11.77,5l.71-2.59L43.73,75.39Z"/><path d="M9.39,148.4c.3-.14.61-.26.92-.38l.46-.17.93-.28.54-.14.87-.17.68-.1c.26,0,.51-.06.78-.08l.8,0,.38,0,.36,0c.26,0,.51,0,.78,0s.55,0,.82.08l.62.09c.33.06.66.12,1,.2l.44.11c.38.1.75.22,1.11.34l.17,0,.17.08c.37.14.74.29,1.09.46l.37.18q.48.24.93.51l.45.27.77.53.49.36c.23.18.45.37.66.56l.24.22,1.65-10.19c.15-1.05-3.51-2.43-8.17-3.09s-8.56-.33-8.71.72l-1.6,9.85Z"/><path d="M128.73,164.14c0-.13,0-.25,0-.38s0-.52,0-.78.05-.54.08-.8.06-.43.1-.64.11-.62.18-.92l.12-.47c.09-.35.19-.68.31-1a3.82,3.82,0,0,1,.13-.36c.13-.36.27-.7.42-1,.05-.11.11-.21.16-.32.16-.34.33-.67.51-1l.22-.36c.18-.29.37-.58.56-.87l.31-.41c.19-.25.38-.5.59-.73s.27-.3.41-.45.39-.42.6-.62.32-.29.47-.43.44-.38.67-.56a5.46,5.46,0,0,1,.48-.36c.26-.19.51-.36.77-.53l.45-.27q.46-.27.93-.51l.38-.18c.35-.17.72-.32,1.08-.46l.18-.08.17-.05c.36-.13.73-.24,1.11-.34l.44-.11c.32-.08.65-.14,1-.2s.41-.07.62-.09.55-.06.82-.08.52,0,.78,0l.36,0,.38,0c.27,0,.54,0,.8,0l.77.08.68.1c.29,0,.58.1.87.17l.55.14.92.28.47.17c.31.12.62.24.92.38l.46.22c.28.14.56.28.84.44l.51.31c.24.15.48.3.71.46l.58.44.56.45.62.56.44.43q.31.33.6.66l.39.46c.18.23.35.47.52.7l.37.54c.15.23.28.46.42.69s.25.44.36.67.21.42.31.64.23.53.34.8c0,.11.09.21.14.32h0a15.38,15.38,0,0,1,.94,5.27c.11,3.82-2,9.34-4,9.34-3.24,0-2.08-6.37-2.08-9.34h0a9.35,9.35,0,0,0-.65-3.4c-.06-.16-.12-.3-.19-.45s-.13-.28-.2-.42-.13-.25-.2-.37l-.27-.44-.21-.31-.33-.44-.22-.26-.37-.41-.27-.26-.37-.34-.35-.28-.33-.25c-.15-.1-.3-.2-.46-.29l-.27-.17-.56-.29-.22-.11-.62-.25-.22-.08-.62-.19-.26-.06-.6-.12-.32,0a5.32,5.32,0,0,0-.56-.06l-.39,0h-.54l-.37,0q-.3,0-.6.06l-.27,0c-.23,0-.46.08-.7.14l-.16,0c-.26.07-.52.15-.77.24l-.11,0-.76.32a.52.52,0,0,1-.13.06l-.66.36-.18.11-.56.38-.21.16c-.16.13-.33.27-.48.41l-.21.18c-.15.15-.3.3-.44.46l-.17.19c-.15.17-.29.35-.43.53l-.12.16c-.14.2-.27.4-.4.61l-.07.12q-.19.35-.36.69l0,.1a5.7,5.7,0,0,0-.29.72.61.61,0,0,0,0,.12c-.08.23-.15.46-.21.7a1.17,1.17,0,0,0,0,.2c-.05.2-.09.42-.13.63s0,.21,0,.31,0,.37-.05.56,0,.26,0,.4a9.06,9.06,0,0,0,.55,3.46c1,2.79,4.55,8.29,1.5,9.39-1.95.71-5.91-3.65-7.25-7.3h0a15.32,15.32,0,0,1-.92-5.29Z"/><path d="M122.14,75.23c6.51.59,11.63,9.46,11.63,9.46L146,109.15a51.54,51.54,0,0,1,2.2,7.27L152,137.18c-.27-1.55-6-1.83-12.76-.64s-12,3.42-11.77,5l-.71-2.59L115.91,75.39Z"/><path d="M150.25,148.4c-.3-.14-.61-.26-.92-.38l-.46-.17-.93-.28-.55-.14-.87-.17-.67-.1c-.26,0-.52-.06-.78-.08s-.53,0-.8,0l-.38,0-.36,0c-.25,0-.52,0-.77,0s-.56,0-.83.08-.41.06-.62.09-.66.12-1,.2l-.44.11c-.38.1-.75.22-1.11.34l-.17,0-.17.08c-.37.14-.74.29-1.09.46l-.37.18q-.48.24-.93.51l-.45.27c-.27.17-.52.35-.78.53l-.48.36c-.23.18-.45.37-.66.56l-.24.21-1.66-10.18c-.14-1.05,3.52-2.43,8.18-3.09s8.56-.33,8.7.72l1.6,9.85Z"/></g></g></svg>